<mxfile host="app.diagrams.net" agent="Mozilla/5.0 (Macintosh; Intel Mac OS X 10_15_7) AppleWebKit/537.36 (KHTML, like Gecko) Chrome/129.0.0.0 Safari/537.36" version="24.7.16">
  <diagram id="EFaykWo05k08vCdMWx6C" name="Project 2">
    <mxGraphModel dx="1418" dy="751" grid="0" gridSize="10" guides="1" tooltips="1" connect="1" arrows="1" fold="1" page="1" pageScale="1" pageWidth="1169" pageHeight="827" math="0" shadow="0">
      <root>
        <mxCell id="0" />
        <mxCell id="1" parent="0" />
        <mxCell id="7gFfQiKyKetfFVJS_ptz-5" value="" style="group" vertex="1" connectable="0" parent="1">
          <mxGeometry x="21" y="282" width="118" height="118" as="geometry" />
        </mxCell>
        <mxCell id="7gFfQiKyKetfFVJS_ptz-4" value="&lt;b&gt;&lt;font style=&quot;font-size: 14px;&quot;&gt;DVD Rental&lt;/font&gt;&lt;/b&gt;" style="sketch=0;outlineConnect=0;fontColor=#232F3E;gradientColor=none;fillColor=#C925D1;strokeColor=none;dashed=0;verticalLabelPosition=bottom;verticalAlign=top;align=center;html=1;fontSize=12;fontStyle=0;aspect=fixed;pointerEvents=1;shape=mxgraph.aws4.rds_instance_alt;" vertex="1" parent="7gFfQiKyKetfFVJS_ptz-5">
          <mxGeometry width="118" height="118" as="geometry" />
        </mxCell>
        <mxCell id="iXowuDf0OQmlkzd2RQj7-1" value="" style="image;aspect=fixed;html=1;points=[];align=center;fontSize=12;image=img/lib/azure2/databases/Azure_Database_PostgreSQL_Server.svg;labelPosition=center;verticalLabelPosition=top;verticalAlign=bottom;" vertex="1" parent="7gFfQiKyKetfFVJS_ptz-5">
          <mxGeometry x="70" y="58" width="37.5" height="50" as="geometry" />
        </mxCell>
        <mxCell id="5G_I6s9iNuSU46j8NY6V-2" value="" style="group" vertex="1" connectable="0" parent="1">
          <mxGeometry x="221" y="240" width="200" height="201.5" as="geometry" />
        </mxCell>
        <mxCell id="zJt5_cv1JNnCAZsJHPtx-1" value="&lt;div style=&quot;&quot;&gt;&lt;br&gt;&lt;/div&gt;" style="rounded=1;whiteSpace=wrap;html=1;align=center;" vertex="1" parent="5G_I6s9iNuSU46j8NY6V-2">
          <mxGeometry width="200" height="201.5" as="geometry" />
        </mxCell>
        <mxCell id="D6vDR4inAijzCNZ0dXHx-1" value="" style="outlineConnect=0;dashed=0;verticalLabelPosition=bottom;verticalAlign=top;align=center;html=1;shape=mxgraph.aws3.ecs;fillColor=#F58534;gradientColor=none;" vertex="1" parent="5G_I6s9iNuSU46j8NY6V-2">
          <mxGeometry x="138" y="1.5" width="42" height="50.5" as="geometry" />
        </mxCell>
        <mxCell id="LQLINN1O8ClkOcB99nSg-1" value="Container" style="swimlane;whiteSpace=wrap;html=1;fillColor=#dae8fc;strokeColor=#6c8ebf;" vertex="1" parent="5G_I6s9iNuSU46j8NY6V-2">
          <mxGeometry x="20" y="54" width="160" height="140" as="geometry" />
        </mxCell>
        <mxCell id="LQLINN1O8ClkOcB99nSg-3" value="" style="image;sketch=0;aspect=fixed;html=1;points=[];align=center;fontSize=12;image=img/lib/mscae/Docker.svg;" vertex="1" parent="LQLINN1O8ClkOcB99nSg-1">
          <mxGeometry x="100" y="26" width="50" height="41" as="geometry" />
        </mxCell>
        <mxCell id="JYxfr1GD91lMXdyeHSci-1" value="" style="shape=image;verticalLabelPosition=bottom;labelBackgroundColor=default;verticalAlign=top;aspect=fixed;imageAspect=0;image=data:image/png,iVBORw0KGgoAAAANSUhEUgAAAO4AAADSCAYAAABNVvz0AAAKsWlDQ1BJQ0MgUHJvZmlsZQAASImVlwdUk9kSgO//pzdaIAJSQg1FkE4AKaEHUJAOohKSAIEQYiCAiJ3FFVgLKiKgruhSFVwLIGtBLNgWBcWKLogIKOtiwYbK+4FDcPed9955c87kfpnMnTsz57//mQBA0eCIxUJYAYAUUbok2MedHhkVTccNASLQAvIAAgQON03MCgoKAIjMrH+X93cRP0Rum03G+vff/6so8vhpXACgIITjeGncFIRPIPqRK5akA4A6jNj1MtPFk3wLYWUJkiDCzyY5YZo/TnLcFKPJUz6hwR4I0wHAkzkcSQIA5HmInZ7BTUDikCdrsBDxBCKEcxB2SUlJ5SF8GmEjxEeM8GR8Ztx3cRL+FjNOFpPDSZDxdC1TgvcUpImFnJX/Zzv+t6QIpTNnMBAlJ0p8gydrRnr2LDnVX8aiuEWBMyzgTflPcaLUN2yGuWke0TOcJgxhzzCP4+kviyNcFDDD8QJvmY8gnR06w/w0r5AZlqQGy86Nl3iwZpgjmc1Bmhwmsyfy2bL42YmhETOcIQhfJMstOcR/1sdDZpdIg2W18EU+7rPnesv6kJL2Xe0CtmxvemKor6wPnNn8+SLWbMy0SFluPL6n16xPmMxfnO4uO0ssDJL584U+MntaRohsbzrycM7uDZL1MInjFzTDgAVCQBiidBAJfIAlsAOsdH5W+mQhHqnilRJBQmI6nYXcNj6dLeKaz6NbWVjZADB5d6cfjbf3p+4kRMPP2rjOAFjXAQAbzNqE7wFovYpcw8OzNsODAJAKATgXw5VKMqZt6MkPDPJWkEcyVEPeDXrACJgBKyQzJ+AGvIAfCAShIAosA1yQCFKABGSCHLAe5IECsA3sAqVgPzgIqsERcAw0gdPgPLgMroNboBs8Ar1gALwEo+A9GIcgCAdRICqkBmlDBpApZAUxIRfICwqAgqEoKBZKgESQFMqBNkIFUBFUCh2AaqBfoVPQeegq1Ak9gPqgYegN9BlGwWRYGdaEDeH5MBNmwf5wKLwUToBXwNlwLrwFLoEr4MNwI3wevg53w73wS3gMBVAkFA2lgzJDMVEeqEBUNCoeJUGtQeWjilEVqHpUC6oddRvVixpBfUJj0VQ0HW2GdkL7osPQXPQK9Bp0IboUXY1uRF9E30b3oUfR3zAUjAbGFOOIYWMiMQmYTEwephhTiTmJuYTpxgxg3mOxWBqWgbXH+mKjsEnYVdhC7F5sA7YV24ntx47hcDg1nCnOGReI4+DScXm4PbjDuHO4LtwA7iOehNfGW+G98dF4EX4Dvhhfiz+L78IP4scJCgQDgiMhkMAjrCRsJRwitBBuEgYI40RFIoPoTAwlJhHXE0uI9cRLxB7iWxKJpEtyIC0mCUjrSCWko6QrpD7SJ7IS2YTsQY4hS8lbyFXkVvID8lsKhWJIcaNEU9IpWyg1lAuUJ5SPclQ5czm2HE9urVyZXKNcl9wreYK8gTxLfpl8tnyx/HH5m/IjCgQFQwUPBY7CGoUyhVMK9xTGFKmKloqBiimKhYq1ilcVh5RwSoZKXko8pVylg0oXlPqpKKoe1YPKpW6kHqJeog4oY5UZymzlJOUC5SPKHcqjKkoqNirhKlkqZSpnVHppKJohjU0T0rbSjtHu0j7P0ZzDmsOfs3lO/ZyuOR9U56q6qfJV81UbVLtVP6vR1bzUktW2qzWpPVZHq5uoL1bPVN+nfkl9ZK7yXKe53Ln5c4/NfagBa5hoBGus0jiocUNjTFNL00dTrLlH84LmiBZNy00rSWun1lmtYW2qtou2QHun9jntF3QVOosupJfQL9JHdTR0fHWkOgd0OnTGdRm6YbobdBt0H+sR9Zh68Xo79dr0RvW19Rfq5+jX6T80IBgwDRINdhu0G3wwZBhGGG4ybDIcYqgy2IxsRh2jx4hi5Gq0wqjC6I4x1phpnGy81/iWCWxia5JoUmZy0xQ2tTMVmO417ZyHmecwTzSvYt49M7IZyyzDrM6sz5xmHmC+wbzJ/NV8/fnR87fPb5//zcLWQmhxyOKRpZKln+UGyxbLN1YmVlyrMqs71hRrb+u11s3Wr21Mbfg2+2zu21JtF9pusm2z/Wpnbyexq7cbtte3j7Uvt7/HVGYGMQuZVxwwDu4Oax1OO3xytHNMdzzm+JeTmVOyU63T0ALGAv6CQwv6nXWdOc4HnHtd6C6xLj+79LrquHJcK1yfuum58dwq3QZZxqwk1mHWK3cLd4n7SfcPHo4eqz1aPVGePp75nh1eSl5hXqVeT7x1vRO867xHfWx9Vvm0+mJ8/X23+95ja7K57Br2qJ+932q/i/5k/xD/Uv+nASYBkoCWhfBCv4U7FvYsMlgkWtQUCALZgTsCHwcxglYE/bYYuzhocdni58GWwTnB7SHUkOUhtSHvQ91Dt4Y+CjMKk4a1hcuHx4TXhH+I8IwoiuiNnB+5OvJ6lHqUIKo5GhcdHl0ZPbbEa8muJQMxtjF5MXeXMpZmLb26TH2ZcNmZ5fLLOcuPx2JiI2JrY79wAjkVnLE4dlx53CjXg7ub+5LnxtvJG+Y784v4g/HO8UXxQwnOCTsShhNdE4sTRwQeglLB6yTfpP1JH5IDk6uSJ4QRwoYUfEpsyimRkihZdDFVKzUrtVNsKs4T965wXLFrxajEX1KZBqUtTWtOV0aGpBtSI+kP0r4Ml4yyjI+Z4ZnHsxSzRFk3Vpqs3LxyMNs7+5dV6FXcVW05Ojnrc/pWs1YfWAOtiVvTtlZvbe7agXU+66rXE9cnr/99g8WGog3vNkZsbMnVzF2X2/+Dzw91eXJ5krx7m5w27f8R/aPgx47N1pv3bP6Wz8u/VmBRUFzwpZBbeO0ny59KfprYEr+lY6vd1n3bsNtE2+5ud91eXaRYlF3Uv2Phjsad9J35O9/tWr7rarFN8f7dxN3S3b0lASXNe/T3bNvzpTSxtLvMvayhXKN8c/mHvby9Xfvc9tXv19xfsP/zz4Kf7x/wOdBYYVhRfBB7MOPg80Phh9p/Yf5SU6leWVD5tUpU1VsdXH2xxr6mplajdmsdXCetGz4cc/jWEc8jzfVm9QcaaA0FR8FR6dEXv8b+eveY/7G248zj9ScMTpSfpJ7Mb4QaVzaONiU29TZHNXee8jvV1uLUcvI389+qTuucLjujcmbrWeLZ3LMT57LPjbWKW0fOJ5zvb1ve9uhC5IU7Fxdf7Ljkf+nKZe/LF9pZ7eeuOF85fdXx6qlrzGtN1+2uN96wvXHyd9vfT3bYdTTetL/ZfMvhVkvngs6zXa5d52973r58h33nevei7s67YXfv34u513ufd3/ogfDB64cZD8cfrevB9OQ/Vnhc/ETjScUfxn809Nr1nunz7LvxNOTpo35u/8tnac++DOQ+pzwvHtQerBmyGjo97D1868WSFwMvxS/HR/L+VPyz/JXRqxN/uf11YzRydOC15PXEm8K3am+r3tm8axsLGnvyPuX9+If8j2ofqz8xP7V/jvg8OJ75Bfel5Kvx15Zv/t96JlImJsQcCWdqFEAhCsfHA/CmCgBKFABUZC4nLpmeracEmv4/MEXgP/H0/D0ldgAccgMgfB0AwYiWI8pAvpNaAQhC1lA3AFtby3RmDp6a2ScFexwAWh+A1qj2tJj0g3/I9Dz/Xd7/XIEs6t/WfwEXaQqPEO+CdwAAAFZlWElmTU0AKgAAAAgAAYdpAAQAAAABAAAAGgAAAAAAA5KGAAcAAAASAAAARKACAAQAAAABAAAA7qADAAQAAAABAAAA0gAAAABBU0NJSQAAAFNjcmVlbnNob3T0hIAFAAAB1mlUWHRYTUw6Y29tLmFkb2JlLnhtcAAAAAAAPHg6eG1wbWV0YSB4bWxuczp4PSJhZG9iZTpuczptZXRhLyIgeDp4bXB0az0iWE1QIENvcmUgNi4wLjAiPgogICA8cmRmOlJERiB4bWxuczpyZGY9Imh0dHA6Ly93d3cudzMub3JnLzE5OTkvMDIvMjItcmRmLXN5bnRheC1ucyMiPgogICAgICA8cmRmOkRlc2NyaXB0aW9uIHJkZjphYm91dD0iIgogICAgICAgICAgICB4bWxuczpleGlmPSJodHRwOi8vbnMuYWRvYmUuY29tL2V4aWYvMS4wLyI+CiAgICAgICAgIDxleGlmOlBpeGVsWURpbWVuc2lvbj4yMTA8L2V4aWY6UGl4ZWxZRGltZW5zaW9uPgogICAgICAgICA8ZXhpZjpQaXhlbFhEaW1lbnNpb24+MjM4PC9leGlmOlBpeGVsWERpbWVuc2lvbj4KICAgICAgICAgPGV4aWY6VXNlckNvbW1lbnQ+U2NyZWVuc2hvdDwvZXhpZjpVc2VyQ29tbWVudD4KICAgICAgPC9yZGY6RGVzY3JpcHRpb24+CiAgIDwvcmRmOlJERj4KPC94OnhtcG1ldGE+CpjRStMAABeJSURBVHgB7V09ryVHEX0L9m8gIrMtLCAACyGnBEi2ZJnABASGFBFYyAGBkUAg4YAAIQcrUnBAgAOQJSMRkFoIAQEgECYj4jfgD/a83drt129m+lRNdd/5OCPtzp2Z7qrqU32qanrm3nfno3vblTYhIAR2hcDHdmWtjBUCQuAaARFXE0EI7BABEXeHTpPJQkDE1RwQAjtEQMTdodNkshAQcTUHhMAOERBxd+g0mSwERFzNASGwQwQe26HNMjmIwL/+/ehdm3+89+HV3997dDwl8tNP3rk+/fSTH7t66on7n6fa6dx4BO7ozanxoI/UCLK+9c4HV3/+5zJJGZs+/6k7V0bmF5/7ONNFbTohIOJ2AvZSYi2rZpF1aRwvv3D/TkskXkKpzzURtw+uw6VmZtaI8SCxCBxBLtZHxI3htplelyZsDYQIXCPS51jE7YNrd6lbI2w9YBG4RiT3WKvKuXgOkQbSvvaT94foiip58+0Pr7uqfI4iuNxPGXcZn81dff2N91NWiEcOTNk3H20RNx/TLhL3kGWXBo5HSa+9ogJvCSPPNRHXg9aF2v7mtx9cWel5IRNS1Iq8KTBeCxFx87DsImkEaUEobBkvaTAgvP7qY3oTiwFqoY2IuwDOpS9lk9YI+tLz9996ar3GiPIcr0Ziy874Iu+62SXirsOvW+8s0oKsLFFbgzEiZ5FY5G0hPn9dxJ3H5mJXMkhrhG1l1eggYSO+pLC2vBZ5Yx4QcWO4deu1dvW4N2HrgWcEmbfuPl6L1XEDARG3AdDoyy99639hlZd8XrqGwAg2elTkc7serPnw6toakz+yjc6yUzbaG1KR+1+U26g0epX1U/bu/Zwy7kY8GM1Yl8yyU9CtKfVVMk8hOn1OP10zjcvws5FMtTXSAjRkTRAQVYB3w+uc2jgERFwOp66tIiXyFklbgoR7Vi95UTJHsCj1nuWziHthT0dK5K2T1iCNkDdSeZi+M+1F3At72ztRkcVsIejCplPq7eUPqvGDRsq6bbRE3DZG3VpEJmiECN0GQAjGPS8qBM/W+vVJj6yjtvUhelQULjQub7YFAfb4yAQVgud+1x4PXcgtu1Ar4l7ITd5su5f72jk4vZUCfqVS2zwCIu48Nt2uRBak9nRfOwUcKgW8l8xuyrrLSIm4y/hs4qr3HnETRk8YAfJ6SmZl3QkQH5wSceex6XLljNm2BNL+EkJ5bu4zsq62aQT42mW6v846EYgsSDlVNJvb92rr1VsjVc+/FQTZV1f3v5zfNPReA73DPI2SiDuNS5ez3gWpTCNAgNafJXmU4e4Tq8eCmJXLj3QtjxK/wPHUE/o7RTVKKpVrRDoee7MtTMlYlMI7wPgdZpYsBgHsxdcMswOOZ4W5rgrMtrPvlXEHzYDI5Pcs5EwNg8myU/3qcyAwCATCZTxHzpBR23i2Y2XcAR6PLEjBLLvnjJgInZEsO6cL2RryEAwyNjYoeauEDNv2IEPEHeClaLkXLZNBrkhZzkCRSV5GH9pkBQtW3x7aibidvYTMNzprgFw9twz5nvtc+4nYnmPam2wRt7PHemW+ObMj99JzspbOj/zSe7RiWbJ/79dE3I4eXEMi9h6wNn9UoEAVsaaE1QJV7TnfsYjrw8vVehSJzKg1gcJkePZ6JdGDVm5bETcXz4fS1pIosqI8OlCMvnd/CK4+XOk5bodJANKuJRHu6158jjfOGyhQitfPZSN2o1zuXfZGghiP3D5bKuN28Nta0nYw6ZZI/B5UTTg8fvJ89Q5CVS7fgnbICRE3GWZv5stS7wkWS18TBJm95M0ag+TwCIi4PFZUSw+BKIEdGrVe7Kgz8ZIJus9dQqffNRE3EdvMbNuLEOxjJrZdFL41j5KiOo/UT8RN9GZ2tj3y5NbbUOsmnoi7Dr+HvTOz7UOhjg9shmRenEDA6JXxHUN62PT+l+8fHurDPQRE3IRpEHmMwqjttWLbkuvJhmzAqMfrqU4899y1nqMei7gJnvVMwgR1kyI8zzqRTecqBLyD7BmPR++k4Y2T0cDQELv7y3oBY6UL5wgwJxYTkS1DraxlMo73t5xATvyzR0N44YO1qxxbpIz1YNY7MJRj2dNnEXeltzzZCapsIrIkYX9zCeT2BAUbttd+62d7JqhYW9uv1WlyzrxXqbzC+57MATX242ue76J6JrlH7ophP+xq2frhCeKDF7PWM2dC5SGbiLhBt2Ll1UMqqLFJ6M1S7GS3rBsckrubjcfdUR1WIyDiBiH0rLxCRZ2dPIsuni+Sj8q69XgYGBGAPMEuooOx4whtRNyAF70TECrq7OQhGO6HPVm394RH0KnHE4Cx2WWEjqYRG20g4gYc48kaED9FJG+5DJ3sm1SY8FM6A0Od7GILbJMXZ056g11P+2dM3NVpEdfpLjbzmdil7OSdnK0XJ0wn9r3IC5sjmdBT7pv95Xj0+SYCIu5NPJpH3my7lJ28BPCUzBhID/J6bYYdCHbs4y+09wY09DnbJuI6PO7Ntkx28n731VMyY2gg2lt3H08hQ5RQ3mAXCQ4ONx6iqYhLutF7jwaxzASMPMKJ/Ch5SeAoAZnx1HBGgl0tQ8e3ERBxb2OScsZDDs8KsxkXIS/6gnwRAnrGYzZi7822kVcoS31n+SziEp7ulW1NdSTroq9nscp0YR/JghGyR/R4V9vLcZ3ps4hLeNubNSLZKZJ1lxa+5oYVeeMrkgV7B7u58Z3lvIjb8HQka0SyU+RNrFF6IllwRLBruO7Ql0Xchnu9E7AhbvLyqOw0Us/kQBdORoLQgrjDXxJxF1w8KtsumDB5KVKKQ5A3CG1dzyQ4Jzkp4s44emR28hIqkp28QQiwjNCD4BDRM+O205wWcWdc7X1Fb+vZyRscIuOJLHyJtDMTsHFaxJ0ACNnJ84oeREQmoDcLRrPTKD2RBbYJ+HWKQEDEnQBpRHaCWq+eCVObp0Bar55oEBqhpzngkzQQcStHj8pOo/RUw2seRkpkCPWSNqqnOYCTNBBxK0d7JuCa0tWjByZuOQt6g9DSVx0rd+hwBgERtwDGMwHXTL6zL3xF3vgq3KSP9xDQz7M+mAYgLZsFo5kWqqBniwtfsC2a1dGX3dZgx+o4QzsR94GXMWnxTi5WRucInDHp5mTPTTbojGwj9HiCnY0hEhysr/aPEBBxH2Fx/Rfan3ri/tfe7PedIu/pFiJvfPSU4ugYDRSj9NwYHHEQDUKE6NM1EXFnXJ5JWFPhzYJb/laOsq159TL7WB12GVt3rTWSBSPB42gLX7t2ekfjRdyO4JroUdkJera48LVmBd4w1P4mAiLuTTy6HHlL5Oi94Fb16PFP/rQScfMxvSHRWyKjc2Tl1asnmgW9eqILbDdA1MEtBETcW5DknjhSFgRpveOJBKFcDxxTmojb0a+jstMoPaMWvjq65DCiRdyOrhyRnUZlQegZsfDV0R2HEi3idnJnJAtGTBmVBb1BKLrAFsHgjH1E3A5eP1oWjAQh3dt2mFiFSBG3ACPr46jstFU9kTe+srA/ixwRN9nT3uwE9ZHs5NUTfSwT0RN54yvZDYcXJ+Imu/hIWRCk9Y4nEoSSXXAKcSJuopsj2Sky0SN6IlnQS1otSCVOpoYoEbcBEHt51E+TjsqC3uAAnCJBiMVX7W4iIOLexCN8NOqnSUdlwVF6woCfvKOImzABjpYFvdk2uvCVAP1pRYi4Ca73ZqfXX439foFXT/Se06tHJXLCJHKKEHGdgNXNvdkJpI0sFHn1RLNgRE+NiY77IyDirsTYk51Apghpj7bwtRJydb+HQKxmE3TXCIBQIGOLvNHsZzAfbeHLxqV9HIE7H93b4t3V0xCwEhMv/dsvPuDVv0iGNZnYQ24rMJTt8fmtu4/Xp5rHo/Q0DVEDCgFlXAqmdiNboHnxuXZbTwsvaZHdI9soPRHb1Oc2AjEv35ajMx0QsCzuEW0BxNPHq2dt6e+xTW2nERBxp3HZxNkRWXDUwtcmAD2QESLuRp05KguOWvjaKMy7NUvE3aDrRmXByIJUpBTfIMS7N0nE3aALR2XBEaX4BuE9hEki7sbc6M2C0YWiUaX4xuA9jDki7sZc6cmC0R81x5A9eqLBYWPQHsocEXdD7vRkQZD2tVdij+G9enRfu6FJ8sCUmOe3N45DWMT81CoI+9LzHw+/kcUufK3VcwiHbHgQeuVxg85BRgSJ8QPkIJBtawhrMmwPAmMRDCVzqQPXM/WYPu1zERBxc/GUNCEwBAHd4w6BWUqEQC4CIm4unpImBIYgIOIOgVlKhEAuAiJuLp6SJgSGICDiDoFZSoRALgIibi6ekiYEhiAg4g6BWUqEQC4CIm4unpImBIYgIOIOgVlKhEAuAiJuLp6SJgSGICDiDoFZSoRALgIibi6ekiYEhiAg4g6BWUqEQC4CIm4unpImBIYgIOIOgVlKhEAuAiJuLp6SJgSGICDiDoFZSoRALgIibi6ekiYEhiAg4g6BWUqEQC4CIm4unpImBIYgIOIOgVlKhEAuAiJuLp6SJgSGICDiDoFZSoRALgJD/pLB3Z/96urdd/9KWf7tV7529cwzT1NtI43+9Kd/XP30jV9ed3322c9e77/1za9GRHXp8/I3vteU++bPf9hsowbHRmDID6J/4pMv0Ch++Uufu+o1MUGK3/3+L7dsgc7eAeOW0pkTDFb//c/bM711+iwIdC+VkW09G4iFrJi9wY4p0kIPzlsWztYreUKgBwLdiRsxugeJfvCjXyya0itgLCrVRSEQRKA7cVuECdrt6sZm8D/88W8uuWosBC6FQFfiestkA0HZz5DQXghMI9CVuGuybY9yeRoCnRUC+0OgG3Gj2dYgzMy6eLyElePWtqXHQi1bdf3cCAx5jrsFiPG4B8Fgbvv+d78+d0nnN4rAmR+ddcu4a8pkmyeZ5TKy7ju//vFVTVBkYpxXtjXUtd8DAl0yLlMmg0B4m2opC1q5nPUmFeTgH0iKleYsuXtwtGw8FgJdMi6Tbb/4hc9cv63UgjMz65a6RNoSDX3eGwLpGZfJtgCJJc5SRt4b2LJXCGQh0CXjtowr7zOZ1V72BYqWXl0XAkdBIJ24TJlcLgRhtbe19SqXW3p1XQhsFYHUUpkpk+sMy5TMGYtUTNZu2dKSMdXf+pTBx75OiElRBrE1k2RKD+R5dZmcli1TY231qa97dLFtPToyxgB9sM1ely2/vurFvrZ96Tj1a31zX5srDUCZXE9Wph8Iv+brfmuf+cE5z3/lO+VQbn0uv26H9iBr6x69xsNrJ6vHjIU+LAzOTVpmnJCFR2hzMkxXa8+M1fBh2rb01ddNdn2eOfbiDpnQh62e/9cnnf+llcoYSGuSzhnNlMuMbOfYuzVH5QGSMzaDRNENAY/VYzpwK4M+c9URyFhXRda33JcVRHme/Tynv+6fMclrmWuOMc8juEMnsMc/BCF2/HO2phHXSoU5RTg/NyHYyA3Qtr7BIcx9vo2DHbu1xx464HwmMJT9ys9LE4gNpGv8wWBkGaq0+5Kfgbs3UM7Zi/GvIW8acRlHlDV/PaA5Upft1kb5UlaPz17SRm1gsGZlT00gNusywXrKDnbCbinbIstm4g5cIA9yI1sKcTMcMSLKRwDy9PE6lglWHv3RtrC7zp6MP7zj9di3pWyL+b2mulkaN+RGyJtC3CXD7FprkrIl49azro2X2S9VIEz/zDYoAcuNzbps0C5l9yR8qSfjM8bX216Q14tjCnGZgTGTtEVuOKJX5Mtw8t5l1JG/R9ZlJ+gWyuQRpLU5Aw6x2KDP6ue4rDLGEZgoDDFR1rEZ2oC51B7ByAhgNsN+3B8ymLB2T+kx3zCBFXqAfYmtZd2WT6CHHQtjy1SZPHUuKsswba3oM/Ihawp78zErA3LQlsVx9XNc5vkaBsY+g82WB0CwMXLL57D3ez36H46oy8lHV6c/YbKxjjAJjJ3W1vaMHpCLmUS1r9hxL2FndrI2MLIgk8GKlWU22p61NRN76Gafj68qlTE4ZmPKZJODidPaLDO02l3y+qjv+LJ6EECmslaNUZ1dLevW7epjELy1lW8VzbVlbJzrO/o8Q1rYxGKPtuwaziriQhGzebKOlZUtudFHES25GdfhUCuLM+TNyfDqgR+YwFiTkPFJa8IhyNdBYW5clz6P8beqE5a0NhaWvGxSWnWP2xocjGYmig0Oe3bCI3p7AkKpo/fnEXZ5J46NmVlHAAnLWxvLukvEswnH+s/sqfcjsKt11sdsUmArzlp+xnGYuKzRcChzL+IdTNZE8epttQehRmythZU5GxgSTvWNEL6UwwT5UdiVdkU/M+OJykbgaAXAcKnc03B2wK3yjJWT2W5Uxmg5NnNMkGWEX5JrwbRuwwb5UdjV9tXHzL143SfzmNEfIi7riMzBTMnCRNHmR6C1WDiHa/Relwnye8q2fsTze4SIm29GXGK9kBKXtJ+e3nWDrJFFsi4b5LeSbYHVXODKwjFDToi4TATNMI6RsaVyeRShLjmxoll3yZdby7aj/LiESeuam7hsBG0pzrqOSXzGrLtmzK17qKWJy2Zd8++WgrzZdIS9e1W55fRLgFI/vriEDXvSuTZj4x65JQOBhX2ssqUyGX5sjQ+BrXxcdgnfuzIunNFy2CUGsUWbeuMQvUVgKqbW4hVDNNjHZNutlcnwW+tRG+bbmoonY264Mi4bQRGRWs5njUeGZ4gJIEc/ImHH0KMdMAEJGRKV+hkyle3nPoNwS7IYn0G21/45e+bOR+YFM4/WVnmwC3yKjt9F3CVHlcBllhGIfswkWAtkaf9ePps/WOcz2RZjZ+ShjemP4rU22yJBtOZGdF60ZEMvvgYZmevwg2GH+c0EihpjulRmnb7WGbWBzGII+gDIS5cvte0jjjEBWr4BLphkNlmW7PL4z9N2SWfPa5gXLXym9DOr50ZeVv6UH/CNs8i8pTPuFhelasCj0bWWs7djEBL/jEh2j4ZSjL3VsDFbXzte2q/NukxmX9LfWkSyvmXAsvEZNpAxZYclDJBzacP1so1l0JKMmJfYynalzMi8pYk7p7Q0AJ+nQKjbeI+Z92Qhk7XRq38v7csJGrEZxPeWbegT0WtBJmKn9TES2vHSfs7GpbUYdt5B75z8JZvsGuatt+ymSmW2FMhwhg2m3Fv0K8/NfS4j3Vwbnb+NAO7pIkE30gfao/1Kyz3zouzHfoZ8fN95xAbysjyDPRRx2WjiiYBeMJh7Dsi0ssQr/+ztWXyncPIGbG/7KZ12bo3dJmNpD/Jm2rukCzxjE0+TuGwUQMTGIHttrGxELnbwvWzdm1z251LmxuXNnpkBHvMCc6/nhvGNIC90sPO8SVwWkKV7BVZGqx3rIPZ5c0vfFq/DuVmTCHiuJa1hxNrkmZwmu7XvnXWhH+TF71exc7Blc3nd/OAJgE3ismWyR2lptOcz66A9rIB7xl23BdYgHEuWuj+OMVnwDJKN8FMyynMj/F/qKz9jDCDVGjxKeUufgVmWHiNsxA+Lq8psmZw1kCXAcM3KotbqsZXLWZOyZdclrmNs5fiYAIuJMvf4Y+0Y2LnSk+CQjTIc6xytOYLxAo9I2Q49+GdjZrA3fKETG5JQ6T+7zu5X/zwrq0jt+iOAe/up2wSbnGsmSst65ueJEOB7Ere2cQmPbCxsXWUKf9gFH2TqFHFrb+vYjQAyD5N1or9x7DboBB2a97gnwEBDHIDAqNupAUPZhAoRdxNu2LcRTLbd9wi3Z72Iuz2f7MoiW6BpGT3y3rZlyxGui7hH8OIFx8BkW5XJ+Q4ScfMxPY1EZdvLuVrEvRz2u9fMvOiibNvHzSJuH1wPLxXZlnnJwZ4hHx6QwQMUcQcDfiZ1eEso86WDM2HXGquI20JI1ycRYBalRnzxZNK4E5wUcU/g5OwhalEqG1G/PBHXj9npezDZVotSfaeJiNsX38NJV7bdhktF3G344VBWKNv2d+fi93H7q5eGPSLQIqYeAfX3qr7W1x9jaRAC6QioVE6HVAKFQH8ERNz+GEuDEEhHQMRNh1QChUB/BETc/hhLgxBIR0DETYdUAoVAfwT+D7pG9TCKbGCgAAAAAElFTkSuQmCC;" vertex="1" parent="LQLINN1O8ClkOcB99nSg-1">
          <mxGeometry x="1.0000000000000124" y="59" width="90.67" height="80" as="geometry" />
        </mxCell>
        <mxCell id="vtwq8ByCl_yhQdKbJ7Um-1" value="" style="endArrow=classic;html=1;rounded=0;entryX=0;entryY=0.5;entryDx=0;entryDy=0;" edge="1" parent="1" source="7gFfQiKyKetfFVJS_ptz-4" target="zJt5_cv1JNnCAZsJHPtx-1">
          <mxGeometry width="50" height="50" relative="1" as="geometry">
            <mxPoint x="191" y="414" as="sourcePoint" />
            <mxPoint x="382" y="414" as="targetPoint" />
          </mxGeometry>
        </mxCell>
        <mxCell id="vtwq8ByCl_yhQdKbJ7Um-4" value="" style="rounded=1;whiteSpace=wrap;html=1;" vertex="1" parent="1">
          <mxGeometry x="501" y="240" width="480" height="200" as="geometry" />
        </mxCell>
        <mxCell id="vtwq8ByCl_yhQdKbJ7Um-2" value="" style="shape=mxgraph.signs.nature.snowflake;html=1;pointerEvents=1;fillColor=#000000;strokeColor=none;verticalLabelPosition=bottom;verticalAlign=top;align=center;" vertex="1" parent="1">
          <mxGeometry x="931" y="250" width="40" height="50" as="geometry" />
        </mxCell>
        <mxCell id="vtwq8ByCl_yhQdKbJ7Um-5" value="Raw" style="shape=datastore;whiteSpace=wrap;html=1;" vertex="1" parent="1">
          <mxGeometry x="527" y="310" width="60" height="60" as="geometry" />
        </mxCell>
        <mxCell id="vtwq8ByCl_yhQdKbJ7Um-6" value="Stage" style="shape=datastore;whiteSpace=wrap;html=1;" vertex="1" parent="1">
          <mxGeometry x="647" y="310" width="60" height="60" as="geometry" />
        </mxCell>
        <mxCell id="vtwq8ByCl_yhQdKbJ7Um-7" value="Marts&lt;span style=&quot;color: rgba(0, 0, 0, 0); font-family: monospace; font-size: 0px; text-align: start; text-wrap: nowrap;&quot;&gt;%3CmxGraphModel%3E%3Croot%3E%3CmxCell%20id%3D%220%22%2F%3E%3CmxCell%20id%3D%221%22%20parent%3D%220%22%2F%3E%3CmxCell%20id%3D%222%22%20value%3D%22Stage%22%20style%3D%22shape%3Ddatastore%3BwhiteSpace%3Dwrap%3Bhtml%3D1%3B%22%20vertex%3D%221%22%20parent%3D%221%22%3E%3CmxGeometry%20x%3D%22680%22%20y%3D%22292%22%20width%3D%2260%22%20height%3D%2260%22%20as%3D%22geometry%22%2F%3E%3C%2FmxCell%3E%3C%2Froot%3E%3C%2FmxGraphModel%3E&lt;/span&gt;" style="shape=datastore;whiteSpace=wrap;html=1;" vertex="1" parent="1">
          <mxGeometry x="767" y="311" width="60" height="60" as="geometry" />
        </mxCell>
        <mxCell id="vtwq8ByCl_yhQdKbJ7Um-8" value="OFBT" style="shape=datastore;whiteSpace=wrap;html=1;" vertex="1" parent="1">
          <mxGeometry x="887" y="310" width="60" height="60" as="geometry" />
        </mxCell>
        <mxCell id="vtwq8ByCl_yhQdKbJ7Um-9" value="" style="shape=curlyBracket;whiteSpace=wrap;html=1;rounded=1;labelPosition=left;verticalLabelPosition=middle;align=right;verticalAlign=middle;rotation=-90;" vertex="1" parent="1">
          <mxGeometry x="647.5" y="239" width="179" height="434.5" as="geometry" />
        </mxCell>
        <mxCell id="vtwq8ByCl_yhQdKbJ7Um-10" value="" style="endArrow=classic;html=1;rounded=0;entryX=0;entryY=0.5;entryDx=0;entryDy=0;" edge="1" parent="1">
          <mxGeometry width="50" height="50" relative="1" as="geometry">
            <mxPoint x="421" y="339.5" as="sourcePoint" />
            <mxPoint x="503" y="339.5" as="targetPoint" />
          </mxGeometry>
        </mxCell>
        <mxCell id="vtwq8ByCl_yhQdKbJ7Um-11" value="" style="shape=image;verticalLabelPosition=bottom;labelBackgroundColor=default;verticalAlign=top;aspect=fixed;imageAspect=0;image=data:image/png,iVBORw0KGgoAAAANSUhEUgAAAF8AAABiCAYAAAA2qA+GAAAKsWlDQ1BJQ0MgUHJvZmlsZQAASImVlwdUk9kSgO//pzdaIAJSQg1FkE4AKaEHUJAOohKSAIEQYiCAiJ3FFVgLKiKgruhSFVwLIGtBLNgWBcWKLogIKOtiwYbK+4FDcPed9955c87kfpnMnTsz57//mQBA0eCIxUJYAYAUUbok2MedHhkVTccNASLQAvIAAgQON03MCgoKAIjMrH+X93cRP0Rum03G+vff/6so8vhpXACgIITjeGncFIRPIPqRK5akA4A6jNj1MtPFk3wLYWUJkiDCzyY5YZo/TnLcFKPJUz6hwR4I0wHAkzkcSQIA5HmInZ7BTUDikCdrsBDxBCKEcxB2SUlJ5SF8GmEjxEeM8GR8Ztx3cRL+FjNOFpPDSZDxdC1TgvcUpImFnJX/Zzv+t6QIpTNnMBAlJ0p8gydrRnr2LDnVX8aiuEWBMyzgTflPcaLUN2yGuWke0TOcJgxhzzCP4+kviyNcFDDD8QJvmY8gnR06w/w0r5AZlqQGy86Nl3iwZpgjmc1Bmhwmsyfy2bL42YmhETOcIQhfJMstOcR/1sdDZpdIg2W18EU+7rPnesv6kJL2Xe0CtmxvemKor6wPnNn8+SLWbMy0SFluPL6n16xPmMxfnO4uO0ssDJL584U+MntaRohsbzrycM7uDZL1MInjFzTDgAVCQBiidBAJfIAlsAOsdH5W+mQhHqnilRJBQmI6nYXcNj6dLeKaz6NbWVjZADB5d6cfjbf3p+4kRMPP2rjOAFjXAQAbzNqE7wFovYpcw8OzNsODAJAKATgXw5VKMqZt6MkPDPJWkEcyVEPeDXrACJgBKyQzJ+AGvIAfCAShIAosA1yQCFKABGSCHLAe5IECsA3sAqVgPzgIqsERcAw0gdPgPLgMroNboBs8Ar1gALwEo+A9GIcgCAdRICqkBmlDBpApZAUxIRfICwqAgqEoKBZKgESQFMqBNkIFUBFUCh2AaqBfoVPQeegq1Ak9gPqgYegN9BlGwWRYGdaEDeH5MBNmwf5wKLwUToBXwNlwLrwFLoEr4MNwI3wevg53w73wS3gMBVAkFA2lgzJDMVEeqEBUNCoeJUGtQeWjilEVqHpUC6oddRvVixpBfUJj0VQ0HW2GdkL7osPQXPQK9Bp0IboUXY1uRF9E30b3oUfR3zAUjAbGFOOIYWMiMQmYTEwephhTiTmJuYTpxgxg3mOxWBqWgbXH+mKjsEnYVdhC7F5sA7YV24ntx47hcDg1nCnOGReI4+DScXm4PbjDuHO4LtwA7iOehNfGW+G98dF4EX4Dvhhfiz+L78IP4scJCgQDgiMhkMAjrCRsJRwitBBuEgYI40RFIoPoTAwlJhHXE0uI9cRLxB7iWxKJpEtyIC0mCUjrSCWko6QrpD7SJ7IS2YTsQY4hS8lbyFXkVvID8lsKhWJIcaNEU9IpWyg1lAuUJ5SPclQ5czm2HE9urVyZXKNcl9wreYK8gTxLfpl8tnyx/HH5m/IjCgQFQwUPBY7CGoUyhVMK9xTGFKmKloqBiimKhYq1ilcVh5RwSoZKXko8pVylg0oXlPqpKKoe1YPKpW6kHqJeog4oY5UZymzlJOUC5SPKHcqjKkoqNirhKlkqZSpnVHppKJohjU0T0rbSjtHu0j7P0ZzDmsOfs3lO/ZyuOR9U56q6qfJV81UbVLtVP6vR1bzUktW2qzWpPVZHq5uoL1bPVN+nfkl9ZK7yXKe53Ln5c4/NfagBa5hoBGus0jiocUNjTFNL00dTrLlH84LmiBZNy00rSWun1lmtYW2qtou2QHun9jntF3QVOosupJfQL9JHdTR0fHWkOgd0OnTGdRm6YbobdBt0H+sR9Zh68Xo79dr0RvW19Rfq5+jX6T80IBgwDRINdhu0G3wwZBhGGG4ybDIcYqgy2IxsRh2jx4hi5Gq0wqjC6I4x1phpnGy81/iWCWxia5JoUmZy0xQ2tTMVmO417ZyHmecwTzSvYt49M7IZyyzDrM6sz5xmHmC+wbzJ/NV8/fnR87fPb5//zcLWQmhxyOKRpZKln+UGyxbLN1YmVlyrMqs71hRrb+u11s3Wr21Mbfg2+2zu21JtF9pusm2z/Wpnbyexq7cbtte3j7Uvt7/HVGYGMQuZVxwwDu4Oax1OO3xytHNMdzzm+JeTmVOyU63T0ALGAv6CQwv6nXWdOc4HnHtd6C6xLj+79LrquHJcK1yfuum58dwq3QZZxqwk1mHWK3cLd4n7SfcPHo4eqz1aPVGePp75nh1eSl5hXqVeT7x1vRO867xHfWx9Vvm0+mJ8/X23+95ja7K57Br2qJ+932q/i/5k/xD/Uv+nASYBkoCWhfBCv4U7FvYsMlgkWtQUCALZgTsCHwcxglYE/bYYuzhocdni58GWwTnB7SHUkOUhtSHvQ91Dt4Y+CjMKk4a1hcuHx4TXhH+I8IwoiuiNnB+5OvJ6lHqUIKo5GhcdHl0ZPbbEa8muJQMxtjF5MXeXMpZmLb26TH2ZcNmZ5fLLOcuPx2JiI2JrY79wAjkVnLE4dlx53CjXg7ub+5LnxtvJG+Y784v4g/HO8UXxQwnOCTsShhNdE4sTRwQeglLB6yTfpP1JH5IDk6uSJ4QRwoYUfEpsyimRkihZdDFVKzUrtVNsKs4T965wXLFrxajEX1KZBqUtTWtOV0aGpBtSI+kP0r4Ml4yyjI+Z4ZnHsxSzRFk3Vpqs3LxyMNs7+5dV6FXcVW05Ojnrc/pWs1YfWAOtiVvTtlZvbe7agXU+66rXE9cnr/99g8WGog3vNkZsbMnVzF2X2/+Dzw91eXJ5krx7m5w27f8R/aPgx47N1pv3bP6Wz8u/VmBRUFzwpZBbeO0ny59KfprYEr+lY6vd1n3bsNtE2+5ud91eXaRYlF3Uv2Phjsad9J35O9/tWr7rarFN8f7dxN3S3b0lASXNe/T3bNvzpTSxtLvMvayhXKN8c/mHvby9Xfvc9tXv19xfsP/zz4Kf7x/wOdBYYVhRfBB7MOPg80Phh9p/Yf5SU6leWVD5tUpU1VsdXH2xxr6mplajdmsdXCetGz4cc/jWEc8jzfVm9QcaaA0FR8FR6dEXv8b+eveY/7G248zj9ScMTpSfpJ7Mb4QaVzaONiU29TZHNXee8jvV1uLUcvI389+qTuucLjujcmbrWeLZ3LMT57LPjbWKW0fOJ5zvb1ve9uhC5IU7Fxdf7Ljkf+nKZe/LF9pZ7eeuOF85fdXx6qlrzGtN1+2uN96wvXHyd9vfT3bYdTTetL/ZfMvhVkvngs6zXa5d52973r58h33nevei7s67YXfv34u513ufd3/ogfDB64cZD8cfrevB9OQ/Vnhc/ETjScUfxn809Nr1nunz7LvxNOTpo35u/8tnac++DOQ+pzwvHtQerBmyGjo97D1868WSFwMvxS/HR/L+VPyz/JXRqxN/uf11YzRydOC15PXEm8K3am+r3tm8axsLGnvyPuX9+If8j2ofqz8xP7V/jvg8OJ75Bfel5Kvx15Zv/t96JlImJsQcCWdqFEAhCsfHA/CmCgBKFABUZC4nLpmeracEmv4/MEXgP/H0/D0ldgAccgMgfB0AwYiWI8pAvpNaAQhC1lA3AFtby3RmDp6a2ScFexwAWh+A1qj2tJj0g3/I9Dz/Xd7/XIEs6t/WfwEXaQqPEO+CdwAAAFZlWElmTU0AKgAAAAgAAYdpAAQAAAABAAAAGgAAAAAAA5KGAAcAAAASAAAARKACAAQAAAABAAAAX6ADAAQAAAABAAAAYgAAAABBU0NJSQAAAFNjcmVlbnNob3TxVss/AAAB1GlUWHRYTUw6Y29tLmFkb2JlLnhtcAAAAAAAPHg6eG1wbWV0YSB4bWxuczp4PSJhZG9iZTpuczptZXRhLyIgeDp4bXB0az0iWE1QIENvcmUgNi4wLjAiPgogICA8cmRmOlJERiB4bWxuczpyZGY9Imh0dHA6Ly93d3cudzMub3JnLzE5OTkvMDIvMjItcmRmLXN5bnRheC1ucyMiPgogICAgICA8cmRmOkRlc2NyaXB0aW9uIHJkZjphYm91dD0iIgogICAgICAgICAgICB4bWxuczpleGlmPSJodHRwOi8vbnMuYWRvYmUuY29tL2V4aWYvMS4wLyI+CiAgICAgICAgIDxleGlmOlBpeGVsWURpbWVuc2lvbj45ODwvZXhpZjpQaXhlbFlEaW1lbnNpb24+CiAgICAgICAgIDxleGlmOlBpeGVsWERpbWVuc2lvbj45NTwvZXhpZjpQaXhlbFhEaW1lbnNpb24+CiAgICAgICAgIDxleGlmOlVzZXJDb21tZW50PlNjcmVlbnNob3Q8L2V4aWY6VXNlckNvbW1lbnQ+CiAgICAgIDwvcmRmOkRlc2NyaXB0aW9uPgogICA8L3JkZjpSREY+CjwveDp4bXBtZXRhPgorPewHAAALuElEQVR4Ae1dCWwU1xn+beP7xPjCB9hgYhuDiSmpEhxo7jighiAQSRW1BKWoSqRUQUmq4GJIsUzSljahpFRNFTBtaYMSkqpBBBxKc0icDRhwwQaKjW1sg43xge+r31t2zSye3Z15b2ZnTOaXVjs78/55//vmzTu+/39vfXp7e4cDAgLIEu8j4DMM8X62Vo4MAV8LBuMQsMA3Dnur5huIvQW+keCPMzJzd3n/ru4UVffecJdE+TUfXxrAJ8bXj1KCImhueAyl4jsQv40UU452KrpaKOvYh7rjkhwUTvOiUygvLJaejplMMf7BuucpzcCU4C+t/IJ2NVZK7fTK8fTwWFoWM4VenphFkf6BuudpOvAb+zop+fAOGjRw+uFLPvRobBr9LDGbHopK1O0hmA78n1w8TO/VntStwGpvnBsRTxvS7qH8qCS1qh7Tmwr8G4P9FHtwO/UMDXo03NsJ5kdPovfT51J6cKRmWZtqklWMEY4ZgWdof9VSg0HATiqqLaMhjZpE09T8vuFBij+0g1r7uzWrWXrdKBsd88dZD9FdwVFCWZim5m9qqBwTwDO0/9vRRLn/2UWfXrs09sFnr/E7JupklSDaNTRAT5bvpbU1J5Qkl01jipr/56b/UX1Pu6yBZj9ZVHWUfnj+a+Lh5U0B/lvoxMay/LX+DD197kvVD8Bw8D+/XkeVN66NZexttn/YUGF7A9QUxHDw19aZZ0KlBji5tDvwBvxcRR9gKPgnbzTT4ZY6uXKM2XMb0Ad80lytyH5Dx/mXQRmzj95ypqeDGns6qWqgh45jmHiyrZH6h4d0yzYIVHXZnKWU4WEeYCj4upXew40HAPwhPICSa9W0s+EsdQ4OeNBQfzkzbAKVz15Cfj4+LpW/leBL0egFj/Qu6OvfYJ7RoPFw95XUObRx8nek2Tkdf+vBd6AxMDRExfWn6a2qY5rxS+PgPStnzU/IeEc2Tt8W+E5wENWif3jq7L/oePuV267w/bwP/oCDs74vq2zoaEfWIoNPpsC1eCx3Ea1ImqGJJYda66kUcxk5scCXQYV5sram59Hv0++Xuar+1CoMP+XEAl8OFfu5F5Oyacu0eW5SKLt0BsNbudpvge8BvxcSp9PKpJkeUnm+XHy5fFQiC/xRkIw+8Ue4D++Nmjj6goozX4P7b+ztdNKwwHeCQ/4HmybtynyYQv34Y8wY5fwOJnRSscCXouHmODEwlH47da6bFJ4v7YTfQioW+FI0PByvTMikKS4mTB5UbZeru1qpQdL0WOArQc2exgc8TeHk2So0Rif9y9ULIyct8EegUHawPG4qxaEJ4pUTiEN1CH8P4riDiu/2gT665uXQEBb8GubnT6zWaiE+mIA9G59Bb9cc57rdvmZEPGTcVPUqt7Oo4gD988p5LqNFlCLHBdAStNfFKTmUEMBfax02XOhuo2lHP3D8VP3dkbeCwmCT15qdejhNdl+51d6ptlhAoQ1v3FZEw0058nf6RDDWhpnBQgajA/jDySu6rttK4zXw14AvH1Lt3xdAXEa1G9z90vJ9tAehf6LyCGI3eeUg6AYmXgG/AzWPOZfNIKwCPIPm78Zgn5A5GWA/eaXO3u95Bfz1iFDo09FnqhaEjv5eWl93Wq2aU/p0gfF+vz0KW3fwWQDseyap9VL0dl11nm1Kryk5nhPCHyreNNBry0J38N+ur6D2/h4l5fFqmovo9AYF3sZgDF95pdUbNZ8FwG7CKMOsMiASZy+iawdE15q/DUSS1hEBWj1IFlsjshRUizVjuoHPKNRfmzgAdu6EyULP8bq93ea5SYZ9yalu4O83eQDsK6AIROSIfazOc48e++Jr3cBfZ+K2ft74JFowgX+SxAA/29fFg7tNJ8H3JqWmC/inOpvpUEstt3F6KmYhjO/T6Y8JZ3FUIK4nLfRmEJUu4BfUmC/sm3GazyZm0YncxcSINhFhIYZlbQ3ct3ggLMamqzmlzCK+9kgcBjwWPojV3yH2V5NHX6oTg/H4NFABKxMyKE6jvRV2463mHaaywNmJdn+A5uCvwQiHZ32SA7DsiDg6oEGz4LifHt/v3+aLVZMH29/BDzGcTDRtdhiB9gGWx4jIa8mzRNR112XOoFIB8PMib4WgaAr+G4IEWgp48h+hyTGzFIAaF5lgLZDs4aAZ+KwT+pMgU7gqZRacdNq4+/R4gPXYEaVEoIwBaG6ewDDXIZqBvxHMZQc2ruCV8egMX0KnaGZ5/sJBIWr8kdgpxGL2HXLryHGG45t1sJsFVxW+iJBsqWEcZuiqsqupivY2XRTK48exU530NQF/+9XzdEUSDOSUg4IfwZhur04WD0ZVkBVXkoruVlpe+W8uXYdSNN7sRdhKTCqagF98iX//AWbMc4gCDhXgx6UF0vr4OnwR+eWlWDTH36Qym55HtDOL+5eKMPh7QaBdsHvjpTdWeswmHeuTc5Qm92q6NjCXead20yWB8jGDWUdbKFNG4UnWWs7gIQeKS9HJxgiEYTjuo/U3Wx/84OnP6HznrQgz3jxWoEkNl6E0hMAvA616rJWf42Av4Zspubxl0k3vK6yjWnx2P7X0iW+8xJrTjS7iO4XAX61inwE5pB6OSaW04Ai5S4acY87+VVgK+gdMpEQoEqnxBan3IFxRnsjjBr+2t4P2NVdJ81F9/MtJ5qj1w4C6BNEMBVi41ghiUCuZBvr6dTerGrnBX40RjkjtmB2ZQLPD47QqJ9d9GBf17pVztAXrpeoQf6mlsIHER5kPkK+bAF0u8NsxCtjZKEagFU0Si3PnAYo1KxXoQP+BnU5KsffC4eu1QjyNOxtexdL/nNCbvL2rdFzgF6JN5OWzmSFTQ6PpCexhLCLPYWenOoUdYh1cfo2o2Sxg1htyP/ibNxVULtXgMwJtq8yyRjWFKrARaGo0nNPuw9xiuyB17XxH7X4xZnb39Edvm07J31/1JOtXINDYzq+8Eof4+BXxd/Gq2/QKL30jpK+XchQohNKZ+XBTBirKQhX4LAJts2AszktYoOA8yVZk50iiE2xugfbabMLcnl/mLKBMDxscSe1W1eyUwDfbJBAywZbnvAqOQ0RW14rxSCJ5u9INx3bve2bkU47dMe4q3e3nFYPPhpXFgpOqlZhmBwk4xquxGVEpqF0zSUxACH2Rs5CyMYhQK4rB/wweexbZyyuMXPqFoH+WzahF5ha8trvSm46///g8O5/YAmkeUQx+oSCB9szETFlySanRTXBcf9R4Tmly3dMtw6DhbxnfG4lE4MlQEfjfdFyl4wKdHOtgiwWphHW1pzC30G9HQKXgRfgH0dZp82mJBo5+ReCLEmgL49IpOTBMaflGpWOOjJLLYst4Rt2U48STKMc2bIIUjQeghXgEv7q7nfY3VwvltWHS3WL6AJ6tJDRKchDItXnKvTRfEnOjhS0ewWdDO5FO7r7xyTQzdAK3rWzx2BaBcA3ujKF4d2Q8MQ5qIZZ9isxNXNngFvxWEGiindw6UAkisgkEXqsX13SxFStPwbv2Ov6uaZbKcbvacroFf01NmVAnl4W4xMdR83nF9qcGXqj1UaAD8hFTswC2LsOKFZHlQmrK6hL8LnRy2wQJtNdSxNr6EsTJXNaQZ2dNRxz8xTkRCTQJHrTcoEhaFJ1MSYhi1qNZ8fQgXG58UQTaeC3+s4pXklC42u/+QKhQ7K8xROKBmO3+aEZYzfaDJaxGu3Nu8JaVV0+25rOtbdkfQ4rIywiVEK1NjKxK0/B/qUTKo4euLKvJCLRmAQKNUas/RYdliXsEZMEvFqSNX0ieYQsUcp+1dXUU+B9jP5pqAQKNDdUKErXZh/hOfzyjwC8S5MuXI1SC7aJkiWcEnMA/guWNZW38W5ezcIk3TBxt7BkO76ZwAr9AsK1fjJmhFnuYeRcC43IbAb8Kk5kDggRakVXrVT3JkXH+eYC/SgC8VFDGmSHqXWmqrL3DEruc4d5h5TRlcUaaHVNad4cbZYFv4AO2wLfANxABA7P27evzTuSugWU0bdb/BwAPqfAzDt7fAAAAAElFTkSuQmCC;" vertex="1" parent="1">
          <mxGeometry x="1061" y="290" width="95" height="98" as="geometry" />
        </mxCell>
        <mxCell id="vtwq8ByCl_yhQdKbJ7Um-12" value="" style="endArrow=classic;html=1;rounded=0;entryX=0;entryY=0.5;entryDx=0;entryDy=0;" edge="1" parent="1">
          <mxGeometry width="50" height="50" relative="1" as="geometry">
            <mxPoint x="981" y="339.5" as="sourcePoint" />
            <mxPoint x="1063" y="339.5" as="targetPoint" />
          </mxGeometry>
        </mxCell>
        <mxCell id="vtwq8ByCl_yhQdKbJ7Um-13" value="" style="group" vertex="1" connectable="0" parent="1">
          <mxGeometry x="523" y="471" width="432" height="147" as="geometry" />
        </mxCell>
        <mxCell id="vtwq8ByCl_yhQdKbJ7Um-14" value="&lt;div style=&quot;&quot;&gt;&lt;br&gt;&lt;/div&gt;" style="rounded=1;whiteSpace=wrap;html=1;align=center;" vertex="1" parent="vtwq8ByCl_yhQdKbJ7Um-13">
          <mxGeometry width="431.99999999999994" height="147" as="geometry" />
        </mxCell>
        <mxCell id="vtwq8ByCl_yhQdKbJ7Um-16" value="Container" style="swimlane;whiteSpace=wrap;html=1;fillColor=#dae8fc;strokeColor=#6c8ebf;" vertex="1" parent="vtwq8ByCl_yhQdKbJ7Um-13">
          <mxGeometry x="17.79798561151079" y="9" width="341.68402877697844" height="125" as="geometry" />
        </mxCell>
        <mxCell id="vtwq8ByCl_yhQdKbJ7Um-3" value="" style="shape=image;verticalLabelPosition=bottom;labelBackgroundColor=default;verticalAlign=top;aspect=fixed;imageAspect=0;image=data:image/png,iVBORw0KGgoAAAANSUhEUgAAAhgAAAC7CAYAAAAnk+d5AAAKsWlDQ1BJQ0MgUHJvZmlsZQAASImVlwdUk9kSgO//pzdaIAJSQg1FkE4AKaEHUJAOohKSAIEQYiCAiJ3FFVgLKiKgruhSFVwLIGtBLNgWBcWKLogIKOtiwYbK+4FDcPed9955c87kfpnMnTsz57//mQBA0eCIxUJYAYAUUbok2MedHhkVTccNASLQAvIAAgQON03MCgoKAIjMrH+X93cRP0Rum03G+vff/6so8vhpXACgIITjeGncFIRPIPqRK5akA4A6jNj1MtPFk3wLYWUJkiDCzyY5YZo/TnLcFKPJUz6hwR4I0wHAkzkcSQIA5HmInZ7BTUDikCdrsBDxBCKEcxB2SUlJ5SF8GmEjxEeM8GR8Ztx3cRL+FjNOFpPDSZDxdC1TgvcUpImFnJX/Zzv+t6QIpTNnMBAlJ0p8gydrRnr2LDnVX8aiuEWBMyzgTflPcaLUN2yGuWke0TOcJgxhzzCP4+kviyNcFDDD8QJvmY8gnR06w/w0r5AZlqQGy86Nl3iwZpgjmc1Bmhwmsyfy2bL42YmhETOcIQhfJMstOcR/1sdDZpdIg2W18EU+7rPnesv6kJL2Xe0CtmxvemKor6wPnNn8+SLWbMy0SFluPL6n16xPmMxfnO4uO0ssDJL584U+MntaRohsbzrycM7uDZL1MInjFzTDgAVCQBiidBAJfIAlsAOsdH5W+mQhHqnilRJBQmI6nYXcNj6dLeKaz6NbWVjZADB5d6cfjbf3p+4kRMPP2rjOAFjXAQAbzNqE7wFovYpcw8OzNsODAJAKATgXw5VKMqZt6MkPDPJWkEcyVEPeDXrACJgBKyQzJ+AGvIAfCAShIAosA1yQCFKABGSCHLAe5IECsA3sAqVgPzgIqsERcAw0gdPgPLgMroNboBs8Ar1gALwEo+A9GIcgCAdRICqkBmlDBpApZAUxIRfICwqAgqEoKBZKgESQFMqBNkIFUBFUCh2AaqBfoVPQeegq1Ak9gPqgYegN9BlGwWRYGdaEDeH5MBNmwf5wKLwUToBXwNlwLrwFLoEr4MNwI3wevg53w73wS3gMBVAkFA2lgzJDMVEeqEBUNCoeJUGtQeWjilEVqHpUC6oddRvVixpBfUJj0VQ0HW2GdkL7osPQXPQK9Bp0IboUXY1uRF9E30b3oUfR3zAUjAbGFOOIYWMiMQmYTEwephhTiTmJuYTpxgxg3mOxWBqWgbXH+mKjsEnYVdhC7F5sA7YV24ntx47hcDg1nCnOGReI4+DScXm4PbjDuHO4LtwA7iOehNfGW+G98dF4EX4Dvhhfiz+L78IP4scJCgQDgiMhkMAjrCRsJRwitBBuEgYI40RFIoPoTAwlJhHXE0uI9cRLxB7iWxKJpEtyIC0mCUjrSCWko6QrpD7SJ7IS2YTsQY4hS8lbyFXkVvID8lsKhWJIcaNEU9IpWyg1lAuUJ5SPclQ5czm2HE9urVyZXKNcl9wreYK8gTxLfpl8tnyx/HH5m/IjCgQFQwUPBY7CGoUyhVMK9xTGFKmKloqBiimKhYq1ilcVh5RwSoZKXko8pVylg0oXlPqpKKoe1YPKpW6kHqJeog4oY5UZymzlJOUC5SPKHcqjKkoqNirhKlkqZSpnVHppKJohjU0T0rbSjtHu0j7P0ZzDmsOfs3lO/ZyuOR9U56q6qfJV81UbVLtVP6vR1bzUktW2qzWpPVZHq5uoL1bPVN+nfkl9ZK7yXKe53Ln5c4/NfagBa5hoBGus0jiocUNjTFNL00dTrLlH84LmiBZNy00rSWun1lmtYW2qtou2QHun9jntF3QVOosupJfQL9JHdTR0fHWkOgd0OnTGdRm6YbobdBt0H+sR9Zh68Xo79dr0RvW19Rfq5+jX6T80IBgwDRINdhu0G3wwZBhGGG4ybDIcYqgy2IxsRh2jx4hi5Gq0wqjC6I4x1phpnGy81/iWCWxia5JoUmZy0xQ2tTMVmO417ZyHmecwTzSvYt49M7IZyyzDrM6sz5xmHmC+wbzJ/NV8/fnR87fPb5//zcLWQmhxyOKRpZKln+UGyxbLN1YmVlyrMqs71hRrb+u11s3Wr21Mbfg2+2zu21JtF9pusm2z/Wpnbyexq7cbtte3j7Uvt7/HVGYGMQuZVxwwDu4Oax1OO3xytHNMdzzm+JeTmVOyU63T0ALGAv6CQwv6nXWdOc4HnHtd6C6xLj+79LrquHJcK1yfuum58dwq3QZZxqwk1mHWK3cLd4n7SfcPHo4eqz1aPVGePp75nh1eSl5hXqVeT7x1vRO867xHfWx9Vvm0+mJ8/X23+95ja7K57Br2qJ+932q/i/5k/xD/Uv+nASYBkoCWhfBCv4U7FvYsMlgkWtQUCALZgTsCHwcxglYE/bYYuzhocdni58GWwTnB7SHUkOUhtSHvQ91Dt4Y+CjMKk4a1hcuHx4TXhH+I8IwoiuiNnB+5OvJ6lHqUIKo5GhcdHl0ZPbbEa8muJQMxtjF5MXeXMpZmLb26TH2ZcNmZ5fLLOcuPx2JiI2JrY79wAjkVnLE4dlx53CjXg7ub+5LnxtvJG+Y784v4g/HO8UXxQwnOCTsShhNdE4sTRwQeglLB6yTfpP1JH5IDk6uSJ4QRwoYUfEpsyimRkihZdDFVKzUrtVNsKs4T965wXLFrxajEX1KZBqUtTWtOV0aGpBtSI+kP0r4Ml4yyjI+Z4ZnHsxSzRFk3Vpqs3LxyMNs7+5dV6FXcVW05Ojnrc/pWs1YfWAOtiVvTtlZvbe7agXU+66rXE9cnr/99g8WGog3vNkZsbMnVzF2X2/+Dzw91eXJ5krx7m5w27f8R/aPgx47N1pv3bP6Wz8u/VmBRUFzwpZBbeO0ny59KfprYEr+lY6vd1n3bsNtE2+5ud91eXaRYlF3Uv2Phjsad9J35O9/tWr7rarFN8f7dxN3S3b0lASXNe/T3bNvzpTSxtLvMvayhXKN8c/mHvby9Xfvc9tXv19xfsP/zz4Kf7x/wOdBYYVhRfBB7MOPg80Phh9p/Yf5SU6leWVD5tUpU1VsdXH2xxr6mplajdmsdXCetGz4cc/jWEc8jzfVm9QcaaA0FR8FR6dEXv8b+eveY/7G248zj9ScMTpSfpJ7Mb4QaVzaONiU29TZHNXee8jvV1uLUcvI389+qTuucLjujcmbrWeLZ3LMT57LPjbWKW0fOJ5zvb1ve9uhC5IU7Fxdf7Ljkf+nKZe/LF9pZ7eeuOF85fdXx6qlrzGtN1+2uN96wvXHyd9vfT3bYdTTetL/ZfMvhVkvngs6zXa5d52973r58h33nevei7s67YXfv34u513ufd3/ogfDB64cZD8cfrevB9OQ/Vnhc/ETjScUfxn809Nr1nunz7LvxNOTpo35u/8tnac++DOQ+pzwvHtQerBmyGjo97D1868WSFwMvxS/HR/L+VPyz/JXRqxN/uf11YzRydOC15PXEm8K3am+r3tm8axsLGnvyPuX9+If8j2ofqz8xP7V/jvg8OJ75Bfel5Kvx15Zv/t96JlImJsQcCWdqFEAhCsfHA/CmCgBKFABUZC4nLpmeracEmv4/MEXgP/H0/D0ldgAccgMgfB0AwYiWI8pAvpNaAQhC1lA3AFtby3RmDp6a2ScFexwAWh+A1qj2tJj0g3/I9Dz/Xd7/XIEs6t/WfwEXaQqPEO+CdwAAAFZlWElmTU0AKgAAAAgAAYdpAAQAAAABAAAAGgAAAAAAA5KGAAcAAAASAAAARKACAAQAAAABAAACGKADAAQAAAABAAAAuwAAAABBU0NJSQAAAFNjcmVlbnNob3Rz8RpsAAAB1mlUWHRYTUw6Y29tLmFkb2JlLnhtcAAAAAAAPHg6eG1wbWV0YSB4bWxuczp4PSJhZG9iZTpuczptZXRhLyIgeDp4bXB0az0iWE1QIENvcmUgNi4wLjAiPgogICA8cmRmOlJERiB4bWxuczpyZGY9Imh0dHA6Ly93d3cudzMub3JnLzE5OTkvMDIvMjItcmRmLXN5bnRheC1ucyMiPgogICAgICA8cmRmOkRlc2NyaXB0aW9uIHJkZjphYm91dD0iIgogICAgICAgICAgICB4bWxuczpleGlmPSJodHRwOi8vbnMuYWRvYmUuY29tL2V4aWYvMS4wLyI+CiAgICAgICAgIDxleGlmOlBpeGVsWURpbWVuc2lvbj4xODc8L2V4aWY6UGl4ZWxZRGltZW5zaW9uPgogICAgICAgICA8ZXhpZjpQaXhlbFhEaW1lbnNpb24+NTM2PC9leGlmOlBpeGVsWERpbWVuc2lvbj4KICAgICAgICAgPGV4aWY6VXNlckNvbW1lbnQ+U2NyZWVuc2hvdDwvZXhpZjpVc2VyQ29tbWVudD4KICAgICAgPC9yZGY6RGVzY3JpcHRpb24+CiAgIDwvcmRmOlJERj4KPC94OnhtcG1ldGE+CiL6iVkAAEAASURBVHgB7L1XjGXHde9dzENyZjg5cULPDIcc5mEQSdGUZYuSbMuyry1bggFb/vwBTsDFhcODDfhJhgH7ydCLAcPGB79ITrq611a2JCsxiEGkSA45nJxz5swwiGHIb/1W7f/p6t37dJ/TffY+p7urgH1q79q1K6yqU+tfa62quuQ9cyG7TIFMgUyBTIFMgUyBTIEeUuDSHqaVk8oUyBTIFMgUyBTIFMgUcApcXhsdXDBSJRy5JGZ5SeHXVoCc8MBRgD7RTbuXhWvdfDtwlc8FyhTIFMgUmFkUqA9gVNIxg4pKsszEwPfeDQEA8c47sfYp+LjsshAuRbiW+8tM7Bq5zpkCmQLTgwK9ARjvGrNgdpnOMP1+HAahGaqYS/r99KDvzK6F2lftKh+qvPN2CBcvhvDaqxFoEMZ7rquvCeHyK+KVfqN+QtzsMgUyBTIFMgUGmgITBxjpYH/RZqGAjDffCOENu167EMKFc5GJaIYKGS6zWekVxjjmzA9h1tXmX2dhNlu9apa9BIzY+5Sh8E12U5MC9I93DUDg/+R1u6xfHDscwiunQ3jV+sbpkwYwrN8QjrNorbYHYFxxZQgLFkewsWKV9ZV5sb9caX3FpRtJfL7PLlMgUyBTIFNgoCgwcYCRVgNw4cziJ5F5nDkVwqnjkXkwU3UwYh8wK73qqhAWvxWZBcCCsCstDDeOwCNGyr9ThgIOMgCeb0bQefSQgYyDsW8cORDVI29ZX5ADZOBmGcCgT1xvwGKugVBA6SUGPq++1vpLIi3zfpU7TSRa/s0UyBTIFBgsClwyoWWqSCWQVsAkzttsdPNTkYkctue3jJnwjsGfK3V6vNxwDQxjwcLIPNbdFMKiZSGsWR/CkhWRwSDZkMtSDVFiMP20nQGb588aiDgWwo4t8X7bixFMXDgfpRrvWkdAPeJOncIeRrSzAQe3xcC3/nIdEgy7btkUwuw5Idz3AZNkWB+5woDIiO+KZLOXKZApkCmQKdBXCnQvwXBViEkqzpqo+9QJYyCvmNjbGMrbzFJNn/62SSy4rxr04SUwIwAKE89XbWaKBOOMpYXY+1qboTJzvca+n2tqFNIgnG+q0usr6XLmTgGBC6nJXjUQ8YpJsE4awDhrahAA6KvWL3gP+BSe0Hf0g7LzdxYRDMJFf6Fv0WnOWJoAWPwrTc0230AqYFVqk3Ja+TlTIFMgUyBToC8U6EyCkTJ4GMjBPSE88s0QDu0L4ZwBjLdTMXfBQcRIqhiIqvpe8dL4g4vBrzKGseHmOFv96K8Z+DD8g50G+XNlJiLK9d9XmwD8uFCLwfi/82UDnsb86RvYXlw0iYZQhb6h9AKMhLVc0R8KrxWc3iDN4NsNG0NYtS6Eh3852mlIjZLGzfeZApkCmQKZAn2jwPgSDDEFmAei7R89agZ6x0M4cTSE11+Lxp0jmITqUjCOEfyjzDmSODAi9PHHjxhoORPCE98xicbcENab+gQfwz+kG2JM8pVd9uunQNrOGHAiWaCt3jAgsd3UIPSHg/vs2Xzakv7i3ySdQO2WptUqedIfCFNcvec133FhJAqo2P6CqdY2REkG6hJc+bsYmn8zBTIFMgUyBRqkwPgAQ4WBeWCw+ch/xZUirxhjaQ3kBWMYz0oTxtD6hoST7xCho5c/dCCGHz1sdhlLLb49rlhjthnLjaHYygJ9Pyot0suuGQpYu9FWqDyww0FV9si34sohVhHRRt5ORfsmzTzp8qGiI+0TpoJBFQeomG1SrmvNLuPypH9MOqOcQKZApkCmQKbAZCgwvoqE5aavXgjhUQMW2F289FycQWp1CLm3BBN2A+Pv2BUfXpJ+ozDzARTXmS3GwsXmLwhh4x3GSGaHMGQzVt6x1FWAo+M8c8SuKUCbciGZwBbi0F4DFSbFOmzggqWnGG+eN8AJ6EBq4c58tY2CWoCyyxJUpYO6DBXarFkh3HlfCMtXm7rkl7pMOEfPFMgUyBTIFKiLAmNLMGAq7FNwwewsUF1gWIcRZxOOmSozZETh75i4Hca2YFG0yUCyAbiAwbCSIF1x0kTZZloeki5hf4PRJtKDk9YfkF5ge4F0SztzDqPNmqjUQiuF8afljZEwxsKAXvKnX2SXKZApkCmQKdBXClRLMAAWMHiMN3/8wxC2/NiWHG6NTP5dU2XgiNNiJsWgXwgf/H3rXXyq/k2YRTmCXjF7ZZUAPjp3JBfX22x1iS1rve1em7muiuoTL0+SiGa9SVC+7YACKR1Fwz3bIrh8+pG4YuikSS8EOrSZVvqdstH3eq701WkKHw+wUuW8T6hjWATS56JfADT/3z+yFUhmq3PDrTG8Ko0climQKZApkCnQCAVGT/XEKGAcrzFj1TJUAxvtBv66i+qzY2MkSE8APpQJqQWrWWB06OLZIwEjUNlpdMTc6i74FEyf9ofeGGmyCuR1kxwdMDqzAyd2N0iSAJ60g8edZB29nUAV5grPb9QP4xvLSzcVvqtmrDzHTV0zZ24Ia2+KK44AHdllCmQKZApkCvSFAiMlGBrUGfSxvdhhKwOefjSEF34UmUm5iGUmzvcKE+MQKGkxiCIO75Wf0h3x3OI2w4xHaSse/rKVISxdHsL9HzR/RdywS6oT4usb5ZH9agpASy4Zb548GsKe7SFs2xzCbpNgYIfTCS3VNtW5WBqFNIp+QXqoNpSuf2tleMfArcrj6VjYKKf+kbyjH7BR2//zvyLQZKdYpT3q+xyQKZApkCmQKVAnBUZKMBiMGdixeeC8iJ0vR8POtAQasKsYid7hz7aZ5JWmzrjm2ihtuMwYiZY2sqyRWTBnljAT5mrnxEd4T57pM/mQxknzt5jx6eH9IaxcE7eUhtGwtBVbDd8/w+KozCpnuzyne3hKB+65XDJhkqBD+6LdDYacbJYF0KCtOqGZ0nX6Gb2rxA70Ca6FS6JqA8kTaSORktoFOw+WRbOfhoeZlEppkyzOihydBSjsJz+JhqjYCiHJ8DNuFC/7mQKZApkCmQJNUmAkwPCcbeRGPH7ubAgvPx9nruOVqDX4M9jbBUNn9QdbOjOrRHXBJloY4cE40OEzI+aMCsIqAYY4iLgHhbAwgrnE8DA89N0jTXwPQ7lhY1xxcoeVYd7COENmlnxpmg5pZRcpYMREasH23qhDXngqGm0CLukHGNrKqZ31rDYoh+t9lc9hZbMNdLKh2tXmL71+GIACbAEzR/bHDdwoD6ABkEFebfMp2hbgSr8CFIE65tvqo+wyBTIFMgUyBfpCgdEAg82Tjh6061A06IP5+OBelE+DvJgLwdz7skFj5MtNZbFmXdz8iF04mUmy+yJMXhIMpA6AC4xHmTk/92RM3NMEPZgrvBFMpeAj8b0i2BPfwQxhRLu3R6DB7Ju9M7hY3opE5Rpb4oqjDmn5Y+jM+E3rDtg7a6tAdpoBL/YsSA4O7o10fBPGbpKlNH6ZQuoL5fDWc9FgeEgtAJ033mp944YQVq+PagykTKnaBLCJ2gv7j8XLbBWR7bHxxA+Kclg6rTyL9k/7DH3XT221vgvYvLgm9kvizNT2brVFvskUyBTIFGiWAsb5E8fgDQhgNoshJbNHZv4+QFu8YkxPvoi3vAdgMKgvXBR8n4qhGw1cGMCQioL3pC8dv+8CafmginnxGcvX3sleY1QG4wSo3JSdvTow7gO4MANm7wZmyZTddwK1csxUhgOdnFYFcGC2zzLT/TvtAmBYmyO5wkEj4vbCkRYAk/Nllq8KYZ31DZdcWPcDXJQd/QZJBoCR/kO7IenieSwnAIv9ENKM96w/uP7E8s9u4ChgBy16md6tlGD2vriX0A/NXcpY1IBT/fB1X2e21E9XnfnktDMFOqXASIDBHxDGD7M5ZrNA/o8pk/HnNklja3HPT4Ww1pjHzSYxgCn4aZgwEfvQ/9w2oFxm97MMAJAuJ2K6SPxA3A2S2bPOJ6lCM3E8GlkAyoRLy8mABcA4YOkdsbT37Yqz5Q99zCQZpvMfusGei/J5uex7+Z7YNPpJ6QKTpn337YgSgu98NTJiQBkrdIgrGnPPBmje5grsgi585zS1m8utvecvCuGBn4nSiyUro1SL91V0R+IFE1hnapSFS6PBMSobpFNeIMpRlMnLSWbmACsAWPbFWGKqM6RkV9k7+lxVPvGr/NsnCrxqh+C9Y/3x9GlrL3N1M/4rbDnzVVddFZYsWVJ7jQFNP7EJ2uuvvx4uXLhgf60J/Ie6LCXgYu7cuWHBggXW3Yv/RJdp5OiZAr2kgI3kieNPAHN23beJzzt1MAOWh/qOm8bA0a3TwXUpHXV6+WzvzKx0sTERmAHptM6v0Efj+PxvR/2XinpgP/BmcY9U49gRE9NbvebaDJm8AUHMkElgOm7WpfakTQFySHNQfegcmeNHDXBYuA2CzpzVLuOQvOvX0NYGdj/5FCDKvhVjOe83fGPdE7XWIlOVHDlo/cPCqMtYgzXvpC5rxaWTZDdoFDh37pz97d8MO3bscIZYN1OcPXu2M+DFixfXzoABGAAowNOhQ4es275bK8iAdgC01atXh/nzTVJorm56Dlp/yuUZPAqMBBgwoZ8YE+IwM/Y9kGPQrmI+GrfRo89bYLYOd0bDThiBM4lRnH9kOp6ugYoHH45LYQ/sjjp0ZqGtLadViDF8ylHOSuoWyoGqhwjf+lJcWbLUGNb6jXElw6YHIrDhQDW5qrrq3aD7KfOFwaIqQGWA1GK/0ffoAVttY8waoIFEw+MbbaCX0zEhpNp3InVulcMSwdh3vvUP7C60smMsGgM05ehb2NCwNTmSKCRT9I9W+hZR5SRNwunDbkNCPBJK6qR0s99XCjCj/+53vxuOHj0a/vIv/9KZ4+W2vLzXM32YLGlybdy4MWzatCn83d/9nc0nLvOrDiKQF5KLZ555Jjz66KPhc5/7nAMppDW9VAcJQJAf4ALpzO/+7u+Gv/iLv/B76phdpkA/KTAMMKyT+uwQwz7E6AzinToOmUIa4LNT83FjMZAYY/gXpsOZEjATn312kbdSofxj5mnvqROMhw2jDu2LRqwsnyV/DA8pA5KNYAxuzLSU6YD60MLtEIzRUk/ufdkpwNFsLpz5WhsTrwnHCiJWjyDl6nbQox2QeGAkerWlAWDqpG+qbhlbNNHCE8oDhvu2qeaQYsAsYYgwy1460hVTR2XxFuNLQ458qSP1I2/qqrL0uggADNImj+wyBQaFAhFg8KfmQl0BuBDASJls+Y+fPs8yUIGqgZUaMJB0BjpmTS1PGAAMCFE435tY0e0Bxvyuzcu0TC3GQt0U38CTn29iTPYVM2akfjBgjApxnHGCegedPQVDAoDruD4xeuO/1DttK8rNUk0kUT/8blwdwmoMwKMz54IgLXoV9aXgrbAe1EJpcUDdtUZX1CRaMdJJ8tSDomIgSh/xtjGwRP9stWmakAWSp39HhCJSSps0er7vKwUAEzBFgYqL1je513MvCicJBmmlefUi7fHSUF3wqRtXXWUAnJF2XemPV9f8PlOgigLDEgze+phsPwm/qfpoVBhGeQIW3QzmMAMc38B4ZNzXTRoxhdG/RdL+opwe+cJsqejpk3HPhf/+crQh4ZwTzrLAuBDRPmXCeRkhzAA56qGLmQvLTvfvijYWO7fEFSGoFt4GNKIuKOK3qqGblFg11I98u1F5VRahKHu7d1TFwUsaQfVLw/L9IFJAoEJMuRdlTMFFL9LrJo129WgX3k3aikv9sssUGGQKjAQYEy2pmK93+Al2eqXh6GaiBeniO5geDpE7zk8KtWWaqA8AF8y6OTgL4DSoToABH+kTZWf/D2xZ9u6MdUJi4bQ1AOd2KdR7gm00UTqI1hP9frzvRlRnxMN4X+b305gCMPPMhKdxA+eqDTwFIsAQc0fXjRj7CtN1Y1eRMgYHD1YfhfGse5g0F8d2o2fHpkHxxyIBM07EJoi8McRkT4yW4eFYH3b5TuUcUSYYrUkx0rCzZpvBPhAYQ1IHdptkeeVNd8RNoti7oezS78vvevmsOpCm8mQpMSt+Xnq22M/Cyu07pJokA2DBN4rLHhGjHDSoySlfkmfZKGoo9tmYZaANe51O1E7EodzU8YJ9y3Ja+odUH6Tt+ST14JvZlhf2QJxJA94AWHlfy+ADkmWXKZApkCnQBAVGSjAYnLkAGlINjFkKH70jQHARvS0LZSA3/tGxgzdgF/GWAQxE+Vr90XECE42YMCUlQd7wYcASoAfAQTSdx6FlreU9NPR93T6AAfsCJBUw2hNHrKwG6s6YmgfDVQcXvLOyD5KjrBjXQVfsKaBjCySMw/QBSgDPN4p6VTTbcFXtJYCDPKRua1paM1yYfJcpkCmQKTCjKTASYMiYbr6d4QHTP1zQJp2NpuTycBvQYRwXbGOjI/uieoHZI67ddzDKdHZ9eJ8dtW3Mkl0lYfK8q8Ol6VbxNb0H6HBtNzsGANdLz9ky3Pm2zHJtCLfeE1ec+DknRj59Q3nb1XcydSF9LsqBGgQp0bbnrW0OhPDM49EgFvUOcdzOoUS7qjKlZZ5M2cb7VnlTZgAQp7OyERsrdQBKOJY0l13rndUZ6cWzT8RN094wyYzoMeKbojH57jL7ZoH1Xz9sz4AMKq4svRhBrfyQKZApkCnQBAVGAgxyZEDGBgGAgYNJcJWZkvOxgpkxy2QmDQNh9syZE4jC3X6hxPBIkyDSc0mBzWw3/yj4JlgCF+W8+KbXrlWs1s0wQFD+lAc+CC0Q77MzKHVlyeeGW+Oy2uVrIvNnt0qfLRfMjvKKwXLfiVO+aVzoSTmQUqAm2LUtnhp71p6hn1Qh/o3VRXkqLflpmk3cp/nC+AEKuwywoYJjxRFn1ACa3rMLl/Yx4iP1OG4IF5sSjosHoHia1NGulmQiuae/IX1bsKgw0C3AhWjiGeWfTIFMgUyBTIEmKDAaYDCjZEdOGEKnjpk1zA7DQpYTrlxrA30xe0wZTTk98mDlAxICmDhxx4pf/r7uZy+PAYq3rVyU75wxeFadYJ+BQ9fPLpOI45k5p24yTC2lwUVjtDBc7C2Q8jz5vQh22H0TBo0bNLrFUg23JeVjgyzA0fwlBgCsf7HnCTYSJbL5p+9af0JlhrEq9d5jm4ThnKaWVjtH38UGCOkSy56rpCPtvs3hmQKZApkCmQI9pYCN8CXHAL3hljjTXGTM4DWTTHCyZcr0Sp/4O06x5KwITudkpnqDpcHungstDWaVAA6ACLuFwqRhOBxy9ob5SAfEJMWYx8qvnH+vnlt5JlII0obB4ygb9g9c3/+vyOCRvsydF8KKVfHkVvZqWLIi2gEgpgcE+Ey9DWMkTQwZkVKgSmDmzp4VGJti1Hh4fwzfY+DNV4oYnbXEVuWVTxnTe5775dSO5E/93rL6n7a+8di37fTcH9pOqmZAy8ZmDtAKyQN2PNSfk3xRuWFsC63lqFupaVqmHMRZaMCCvUzWbTQAY0DX45c/UGLZ7zcFWOGRV3n0uxVy/pkC9VFgNMCAMWCEhySCpZq+fXgHBWAwJy7AAUCBgSQ2AZpVkqYABowTg0S2I0fyIQbeQTZ9j6KyUm4cdiOoKWCW1JvVMKgAsGfBoTq51MicMtz4xn6NPjjUIDBhbCmgIeoALtQigDHyYjdOd/ZN8VkRMDU8VzdZwVGlvW3SIOpGH3Ppj9EIenEuCiADkAotXrM+AuDo1AHuuJAwsUNrdgNNgV7uCTHQFc2FyxSYoRSoBhjYTyy1WfjPfswM7Gy2iQpjlDNmIaaZMjwABjNxDhZj5g6w8Fm8MRFnMjZT13bgPANMuNwZuNHtqPyaDCgKUVU/ipHOjE+ZtIEL+xMABoAKYAbDxBaFzbq4OOvEbVKKepAFahdXvRiYAJgAuABhSI1grIANpw95FlIUPm9NyosbytmiIREGwKU0UoEJk5Ri6+ZYSAwwW3SGKHa1NuXiOXGKR5BepXX/wEejASmSI8LT+Eky+bb/FEBywRbab2C4m12mQKbAtKTASIChARlGwMwSBsn+BTBMSRrEyIire2cgGvGNToT7ZUwRhvkuTAQGWYQjBWjFsTDlC4k9Gf/hqb+uVb+iGP4MU6fuKhrlt3ueJd0ANCCVAFAAFFAfIbFxZlrE5XMHEfYeQOaSItQfJslwmqU0srgjaKTM5ZPYADrRr1V2CGXOi20/rT5EADTF95eJzyt9V3xjQTEe39gtEgvAHeo4pCKK7/Hyz6BSgK2z89kZg9o6uVyZApOnwEiAofQY6Bmoh26M+nD2Wzh8KOrD3zMGWOlgAoz2XHjmX+SyWfgIR7yCeY4I10PxvR4Hzqd8BcPzstmzigyo4J3NzNyhCpJTHH2qZ94rTHHdOJF0i8vDy5EUeQr7AhSihT9bfVpVbd20qSQfWhyWVSO14DTf7KYMBTgAjFNHs8sUyBSYnhSoBhjMAFFrsJsns8KhDaYzN2aJjlxMAXpopijGQJiYxfANoYkjgl18U/V9EnNwb1uVtCImTFB0kE8FVEdVJomuIPcJ13dSh3g2xQd6N+KjKfLQbdlb5G3dDFdUaUFXJEKsRFm1LoTlK4fpV6b58Nf5bsAokI08B6xBcnEyBXpIARuhK5wP3jaAM3iz5O/6NdFwEZG/3lV8Vh0Ek0gu2V1UR54GoRVMkVqBEwqs4JXUs3wP1I/opefsj6aAEQ4QjHqEFTw3bBwdJYcMNAUyuBjo5smFyxSYNAWqJRgkq1ngApNgsCpi2bPRpuDQAXtpDJCZpOJUFUMzzap3CuskjuIOqj9eHcZ7X1WvFkZp3VTFmtlh0JW9NNaY9AKAUXVOzMymUK59pkCmQKZAXylQLcFIi8Tyyzm2zwMGn+xr0Vb1kX6U7zMFGqAAK5QWLIr2F4CN7DIFMgUyBTIFBoYC7SUYFBEJBRtvoSq54964L8HLtryQ2WOq6pAkYyKz9YEhRS7IwFIg7V9+b/2SLcfZEfSWu6OPvZDiDWxFcsEyBTIFMgUmR4F3tVrRkkHNyMWKLPxLURsPkBsbYFBQH7St0NeZ9EJnSPiGWra0MrtMgb5QwAAue4twngmH0Gmvlb6UJWeaKZApkClQLwXYlA4Qgc/qK+7fsVWLLPMm7C3bW2qWaRsWL17sIGNQ7JvGBxjQDZCxfHWk4I23xF06d23N2pJ6+1ROvUwB+qGkZKxsYvXI9UNRwuZAuPxBfs4UyBTIFBhMCgAM5MqAIH3HPderr77qgOLo0aPhwoUL4dy5c+H48eMOOM6fPx9Wr14dfumXfsmEu1fZtkC2L9AAuM4ABgXVAM4popyPcXBP3JUxEdcMQH1yEaY7BVDX0Rdvui2qRtgQzo9jn+4Vz/XLFMgUmGoUSIFCGUSU64Lq4zXbxZkdbl955RW/55l7pBYnTpxwScWpU6d8/xjenT171kHHZbbCkzhINQYFXFC/7gHGTbfH5YHPPRV3rgSFCYmlM8wy9fJzpkC3FBCoTfsXAIONyG7eFFUj6fbr3aaf42cKZApkCtRIgRRgkE0KMtJ74qH2AEwgjdi3b59LJ44dOxb27t0bzpw5Ew4cOODgg/eoRlCLsNU+3y1dutQ2jr7MAUY5zxqrN27SnQMMDfKcHLp4mZ2GeaMdz74rHsqVZlNmCum7fF8PBVJgJ/pXrfYZlsjVU45epao6qM/hY7xE+I0muWD7elY1EcY7xe9V/jmdTIFMgUyBSVBATB5pBPepvYTUGvv373cJBODh0KFDLpU4ePCggwjUIXyr83oAFIAJpBxcpKl0eRZYUb6TKHpPP+0cYJAtgzmrStzY0wb5AdHz9JQi0zkx489VuGPKVBkgAbCYb0tTMezE0SezyxTIFMgUGDAKwOwFCAAYSBwkpcCGAoCBPQVSiu3bt7tdBWGACeK3c6wUAVBwkd6ggYq03J0DDAZ3v+zzhUtDuO+DwaxM4rkb514ZThMmll3/KSC+S5u5KwJazxY46MxZZUVSMdcALdKzTffFTbVUdsUpapm9qUEBBkXOIUGPnF2mwHSjwNNPP+2A4XOf+5z3c2wlsJ3ATuLkyZMOPAARkkYIKODj0uWmAhDy+QYHwFCYfH8xQD+dA4xWoY1hofe+xk5Ync1lywVTgNGKl2/6RwHAYDn3UQHlCAP8bGVnS3BUI7NsQy0O4stuylOAgVID6pSvTK5ApkBCASQU2FOg+kDNwYoPQIbuiVoFChQmlUeS5KhbxR31YoACugcYzBgZ5JeaiHq9nf/ADoqHD8Qq5dlkH5u2ABB+JLzd0xbM8kHEvPKVFvasmT8lVXulYX2sQas8KoOXzwqPBGPZ9XZa6h0hLDLpGaBWZVfc7E8ZCjAwcjGbS09TVfiUqUguaKZABQXox7t373Yjze9973sujcAAU1IK3uNSCUQZUEhKUZF8C5iUv6mK2++w7gEGJYZhMeivXGtia9OJP/rfcUWJ6ZiGZ85EwhWi+fiQf+uigMjt9LYHmDArLnhGn/e6iaIvIlqzS02iU1tVJmfa9lLvFd4vnz8i/QybnwW2a+fKNYXtRauy/SpZzrdHFNBg26PkcjKZAgNHAfq4VCHcc6XgIv0PpPcDV5EJFGhiAAMUATNasiIO/IivLxoTA2BkNwAUsLa5+lpTJZiUCQZtIjq/3rM2ugh6qEAQqUQA/l0RpfGKATAoF+fh+Ool628YGWc3LSgw3QbTadEouRI9pwD9XABDiZf7fvlZ8aa6P0GAYdVm8IeBYc3/85+w5aqnQvjO1y3cZsiFEYoTR4yL+NnVQ4GUtC6VsDY4fdzaxpjxkuUGAm3Vxe13hfDG6wY0fhLCru3x/vVXR5dHaQEy5BSm57p89RH1GYAsB+196OMhrLVl0YAM9sBova+rIDndTIFMgUyB3lNgugKJdpSaOMDwFI0BXGoX50FcfDsuW0UcnwKMdjnn8HopgO3F21zWLkiXYNYYR15hgJClnleaVOAde0db8V7Mvd5SdZc6Kh6kF/MWRlufDC66o1+OnSmQKZAp0EcKTBxgMIuEKcGgbjLju5NH7WyIZ+2cktMhnLLZs2TsTc1++0jEgcyadnnLpBUH90W1wglrn9vtRNwNdpbM+z4Qw775f+K5Mnt3RpDBN1XGoC3DmpoaUxIJgRyyAVwM3RDCitUh3Pm+qOoZSELnQmUKZApkCmQKVFFg4gBDqcEcLreDVTDEW2wW/syKz5i6BGYFyBBPsmgDOUtWPaa0LyJTCSM0tJZzIGhtgWoEEAjjRq3FMuN1G22J8ZkINnjHngQ/ecO+tPRoPzF8NaKAAGm33imjifpWWBVf6QNysLVg5QgqnnRlzESzyd9lCmQKZApkCjRKgckBDDEEjDxn2x4F62+OKxY4DO0d4xowITEPquXMLg1otK4zI7MUXKjGrB4BPOzcGsIek1awE+bCJSE89JEQLpwP4Yi1148eDeHoQbu3y9utaKd2QKKWtrTCU/7Lzc7iagOst5rdyCIrZz5vRC2Z/UyBTIFMgSlDgckBDFUTJsSsePU6Y1jnjEkdsNmyqUlsnfuI2bTiZ78+CggQCPx5TtY+hGMfA9h45vEoccIgFEnG8pUhvP9n41LW7ZujAShqE5a2vmaGoHyrK013MiBD6VjS0XEDwDDpxTIrDwCIM28w7Kysk77Lfi8oMBnjs6mwHr8XNMppjKRAVZ+pCuOrch8pP49MOT9NFwr0BmBADWaZzIwxyMOI8KyJ3oMBjOwGgwIwad90y0DFwb3844OvzFhqKog1Nxg4tGWtuHdsqTFSDdoPZv/Wm9FQVEweX+CA+JMBGXxfdqQ3b0FUtyEVY7ltdpkCmQJTmgIAjwwqpnQTTqjwvQEYMAUs/GEGa9Yb2DDGdMaMPV81RiURBhPU7JqjgABBCgbQVxHuQMPa7Mnv2+ZVq83ewWxohmwZKMDwFlNLsPJk7U1RdbJ/dwibn7FlyGeHJQmjamFptVyHDa3y+XdF/wGkUpZ1ljfSMHaJxWZkRB1aGeWbDijAwJ7OKtMzDtLP6xj8lW/KXNJ8KEu78qRly/f9o0C6o2S5rdK2VAmrwvRuLF/9FJ98JprOWHnMlHei5SDQsDcAg5ZzkGHAAqawwMTb7CSJHp1Nnt7tkOnMlB7Q73o6c7c2AQACHI4fMYmBbWJ1jQFEQOKVtrwVwPi2STO4jh2KjP68xWdJ67v2fgRAmGSFHJ9YeTAWpv+gFuECcCBFyW5SFNCAg68Nf+TrwCWedZEZcds5Bi6BA+4vNxCIz3bI+LrS78WceKe00/zSuPl+MCiQ9pty36Ht6Dtsf829zpRpdwqo+of6DX2F+ytsQsE79Q/y4RknfzCokUsxEQr0DmAod7YOZ3OkG205JBs9YVgIyJC1Z9F5esqglHf2R1NAjCKlO7YX8A8kFccP21bv3457ZAAmkB7A1K81gMg9G1wNbYjLj7/zFQMkpjpBOuUJWCKePokVUow0n9GlSUIUvwhi1coCU6+xcgTpxYo12bgzoVY3t2IMDNrc65hoBn+OgoYZcBgTZ4GcPn3azwN59dVXPYzDmNoxCZUB5nDNNdf4dZVttrdw4UJnFPJn2d4lxOECfKSMhGeVr3wWidLPfv8oAFjAwdzpJzo6nHv1I/rOG2+8EU6cOOGHeNF3OMyLfkN/Kjvan3a/7rrrbM55dbj22mvDokWLvP8sX77c9mu8ysPoLwAOLvWbNK0MOFJqjLyHNuk18m3/nnoPMKwzuVtsun0Y2MF9USTvmz31r6I55woKAA4w/GSHzyMHomRiqTF42pCVQZda9wAwXGc2EZfZPYfbsQT58r3RABQJCNhiso48kF5w3siqtVGKon402bRn0PcwbhgBR6DDGDi9EZ9BH+AAU9A7GIJOdtQ73guAjEU2GAZMgQtmAOMQA7nSJhUwEXwuwAbvACTEhbmIiZw3iVh62NlYeeZ39VJAoI8TQOkD+OoftBH3+Lyj7wAOz5w542HqV4ATwEfZwfgEStVv6DPcL1682PvI3Llz/Zl+wj39Zt68ed53FixY4N/Tn/rh+E9RZ+pOvTtx0IZvmnL633N6KzSEtk05TSaYYJSBYW8BBozCZ7RWtQ23xpMvt22OjIsVCahK9D6N2xQlZnI+I+heEAJJBmeTsPfFi2ZnseOl2G6AC4AGju8w3EVl8dM/bwDjZAjPPxlP0N29zSJYGj7rKSGNdu1LOE7leQ9wYd2Q1SzYfdzzUDyWPcbKv11QgEGGAfDw4cMB5v2jH/3IAcXWrVudYQA4Tp486UCDwY8ZJ4xDzIWsOp0l8o0cAwygQ6CCAW727Nk+0M2fP9+ZBYMP4cuWLXOJB0yDclbNeJVu9puhgIAp/r59+xwk/PjHP3aAun//fu8z9BeYpoAFfQeJBo7vuu039Be+AXDCDOkfAAskGytXrgz0m1tvvdXf33///S2AKop0mp/iT9SnbvxH9u7d6/Q4ftxWR47jKBunqfIfbMrRLvy3n3rqKacnIL4pBxjkv/3AAw94e6VAsLcAI60RuvSLpi5ZsSoykP177O3woJRGzfcDQAE/p8RUWc88FldxILWA8SNZwCFRuNZAAP6t98SD7tijgn01ThvoYLWJn4MSo4/7mwKQ2XNNOmLgAvUI9+SbXVcU2Llzpx8P/eKLLzqTYHBjkGPWhSibQRKGwCwU5sCAlOrOxSTwO3FpPH1LeuSnfBjkTp065bNPBiGeAR5cMJY9e/ZUzng7yT/H6Q0FaCukFYDQAwcOOCiljwAskEwASukr9B/8tO9InaL2p0RjMX71GXx9Q16UgXTJi7568OBBZ5Lbtm1zf/PmzWH16tXhzjvvDENDQ95/mCk34QDtqIAA65QLOnXiAGrQrCmHZJLyfeUrXxklRai7DIBBgOGmTZv8f53mV18rMQuG4SyyvQxs0An796b5Anuj+J3QDge1kQnkpwlRwGldSBFg8jjC9Gd4+fkovbj3A/EdqhHiYZfBWSbaBZQD1Fh1ghiQvU+w30AagUTDHd8k6RehIzy9N/QbVq2zvS9MRYKhae4PI8hUftBATbgGdJjDjh07wte+9jWfbTHjRDpAXJg+8bj0bdlXOuW82j2X0yI9LgZkAYz0W8L5RpIOwIZAThov39dPAbU97UHfgLE/99xz4ZlnngmPP/64M0bCABAwfuKl7S1goZLyTk5p67nKV1rEJX8uMeP0++3btzs4hanDvFC9SRJWlW4vw1QO6goIevnllwPlefJJk9524PgPKA2ic58+d5BEV1H4LyFdeeSRR7ytuvp4kpFXrFgRrr/++lYbpsn1HmCos+Gz3TNnX8A0mOnqNE+AR2cTpbSs+b5nFBDxhwcGl0yQ/qkThhFslQhqkJVDcY8MQAbO29aABuI37CXm2D4VrDa55U4zFP1WXJVy3sCGnP2pRjj1DQK5J10MO1eujWmgiuGbNN6IBGb2gwYpfMShzDwBFACJr371q60ZJ4M1DB3mkH5TxQgmO+iVv+dZDEStpTj4XDAUykYZs2uWAmoDckVCgOTrn/7pnxyUHjt2zFVqAhaKi6++w72cwtMwvRvPL39TBi18jwSFfHft2hUo29NPPx0++tGPOjP7wz/8QwcfgI46nf5HAHakBDDy1JXroXeEt3unOL32oWG5fL3Og/RoE/3HqeOSJUtcwkRblFUzvQcYqhFMglkvIm+uqwxsMMttTmqkkmS/Gwqg6rA/th9aB4jwAYVBpQAjzvztHvCINAM1CYADEKlNusgvGYiqsy/6B2fY8C2bapFedm0pwJ+ZQYRBj8GOWSazKmYuL71k9jOFk367PMiNNeCN9U7pjueThgaednGJQx2Ih+tFvu3yyuHVFID+0B2biqNHj4YtW7a4Kgsmij0N73QphXbt1C5c33Xql9Ohf0h6AmBGigCoHhoaahmWwsxQveHUnzrNr5t40IuycHEvVy6zwvHHepfG6+U9eabl62XaaVrQmkv50QaoPOk75XaoEWAUM122feZo8LseMDXJ7hC2mAgeZmUFnBFO9bTGb+sURxFGRB3xoBi98VtlsrbQ/aV2/+qFEJ76ga0UMR/LbdQX7I+hcgIc5ZatMpWKtTFAgW3Fv/6/Qzj/StwqXvGVNt8ojHyusX5x9/vj1uBzC2mI3iv97PsfGVABQ0DP+u1vf9tnczAGGATi2PSPXTXINDXgjZfPeO9zc9dLAfoJhoAw6z/90z/1GS92MvQZ3lVJlepss3La6seE610a9p3vfMfVbIDq9evXhz/4gz9w/T9Gw7125C8JBoAeoKNyye91nt2kJ/rwTXrfTRrdxqUtdIkGa9asCRs2bHDbD8LUXqRdH8DwkhsTgRkxM+VciXNnI8NCNJogwW4rmePXTAFUWJy+es6AAptsLVlhAMLsJKqYP0afONQlSDWuX229ynyWsBrjG9XOgA3SwUgL4Dnf1CJsykY/qUo/pj5jf/nDahkgemCM75BasBwNCQaDHjOr7DIFxqMA4nP6Esa1rOBBxaZZeVMMarwyjvce9RqO8iPBQMUDQ8NwmOeUuY2XVifvoQvgS3Tq5JuZFgfas+wYyWnZ1QwwLDsyhfnc9WBkIju2xLMuYGAwG5wYi55j6NT6pQ4SNthtdACs4nasuukd9gzuCjEc4aJN8aZFMz33zC8Kz1JiwN9Fk0bs2W4rRMwmAwkGbUhZyuVR/guXWv3tu4/8qil3XzB1ialajhg4we5G36ie+HNMbYah6IbbovEo/UTxlGb2fWZy5MgRBxZ/+7d/6wMrAINBj4sBsB1zaBeeyTozKYDUAnuGf/u3f3P7C/asUP9p11fahddFwTQ/gYWqMFaWADL4D/zar/2aL2tlNYPUg5MtH3lykT5SDMAZ4IYypeWZbD5T8XvVXz4GnkNDQ6PsL6hb/QADZoJD1I4U4/Z7jAG9aDPjIxZoDMlfF3FgxsUtn0wpRz3FIN0vmDGMk7NZWO7JPUZJPlu3e99y22iA4dA7hszfMckO6bA3RZqeaAhBSLtFo9bNJEmVpEMbuLMb9sewP1jY+XIECjeYwS7SKNVTUfE9zOqEvQ2bZVGfHz1mRqPHDVCaqoVCt76ztG+8NRqKonqBNq13aaIz+56lpujF/+M//sNnahjlwRSqwIX+7DObYrn2ZQrQL+gv9BvsdL75zW+6BAN1G+G4tO+k9+W0mn5Oy1IGG5Sd/8cLL7wQWMWA9OIXfuEXfD8GlVPf6LlbX2CCvLKkcCT1aBvAHHYXbJbG/jYsHS7TvH6AQblgHuwKyTbinNx5aL+FHbWebeHD3HJkDab0k9XL62y+NYCvlsBGAbUAtgaXWBjSindNtM0Op5cU6oT3CoZuOKPFcFNw0RhNaBe73jKQgJrj6MGYM1uGowZpBwYIZ/+TRSbNYIXILgMmr5skxAEGaZrTt2wFjgQDwALwym4UBTBsgxGwNI6leqhFmE3xx+YPng7Aoz7OAZkCRgH6CAySvRxQr2F/gf2CpBdThUjUI2Ve1Al1DxtgIdFDevHwww+PABiTqZvAheiXVSSjqSmAgXpE0qNyLOMCNTsxFBglx3DfvCnq9WGsB/fHlSVTBWSoLpCM+qSOdzBK/HUbzYDRGO1aY8h+cJcBK1ZkMFNHkkMcLk/D0jEDIl9hgzoC1dGhfVE1ccKkPGzNndoy+Df2rTv5pbIUbyfmKU2b3VBGgMbWzXErccDhQls1wqU6lDMh/FqTYlxtm3J9+H9Eddi//X+xfthlsOpkngGLO++PthcZXJQp6AwAUfYXvvAF3+CH/S0wMmNQxVUZ4o1KJAfMaAqIMbKEGZD6mc98xtUjbMRWxSyJP+guBRkqL0AA0ITKhJ0/V61aFe677z6fWU+mPqTLJSNPbQg2mTSnw7fQRA5ggfSCZar9AxgqDT6zdtsW1reF5jAtZvfvWIEHv2+ntRh9j8oDRom4/wrDbMzMbdmOgwqdDOo7YxrA4L2voimSoe5XGE0wXnLjSpaJGuDgD8+yXsAFKhSYc78coMdm0y6NYDdPypZ0tFHFghZcLD29zOqM1OZNk84gzYBG180zo1Ez8ER6kV2LAgyarAhBLYJ+GdsL1v8zuKH/1aDa+iDfZApUUIB+IjCK3QUX0i+ABv1rujnZR7CiClWJpHwpM5xonaElF2mKphNNa7p9B63ZIhy/aokq9YXbNeNgSKgIABWc0MnKgWOHh5mqlwLGVRTHGnVgnRetVVADTSaVwAjygZ+Ju2BuvCPWk5UXcu1m6iQD0zUNiqdBfGwdYOrYQGz5sS37PBvCV/+3vSho0qJNUQZo2wojgR44slIVKQt5v/xcPOUUWxpUJTJKbQc2liyPBfnV3zIJyMEQ/uv/xA21br/X6mtABTVKdk4BBjFEvszEHnvsMd/8CFE2emYGNt6XXVVYOU5+nlkUoK8godBmZp/97GddNcIOnTiYbrnflJ8HmWIqawoeqCvXP/7jP4ahoSE/E2POnDm+siSNN5F6QU/ABf9N7c5JGVSOiaQ5Hb6BriwNvummm3wPDKltqVtK8/6M8BgCMlsHZGAMyAxdzIwSjh5LCe2fU9kqBnm3OWCLa442X7nGll3avSG6rpZdWmONcDwDxpD2LF8Zl3LeYcaxr5mx5IG9RjNTL7mBKIQqvlUaVWUckfg4D/rek1VD2MNFa6/Tpq4BNCHNuMbCZo3TfZTWXFONUeab74x7XqBCKYo9Tmmm/WsNVBiRIbngzANUItwTVgUu9M20J06uYFcUSPsFZ2GwvwU+UjAxgDROet9VRgMUmTrA0LiwM2HpNtIaRPds/oRLGV63RZeKBADD/XSgWbc0qIoPHdhgC5CBBKOdG4dDtPtskuGoEFAdsE00QAM7A+eVxnXE0yaZRWOfI7lYsy6Ehz5i+0XYjB1pBMwfhi+m32lh0vioD5ASIM3AYbuBcezpk3FDq7fQx0MsJxwx6nX25/Ij3QEGF2x/DFbGYLg6ngNkIPHw3VyLfS98yat9z7u0zuOlNU3f82fFxoKDntjyG9UI0gvC84A2TRu9pmqpvyAJY98UfPa7EJPV+5qy70uyAhjYmyCqxyAacM4GUJN1SIO48iqS0ZRk/wtWj6Snp5ZjNQ8wYChsxIRuHkM/zq5gVg6z4RokJ+ZXLhfhi5daPawOH/v1eJz5YgMXgALiSnUw2bqQj/JesdrsOkziwzNqk4P7jNEb7XCEwfh76WgKpYlx4SUW8JrZUJw4FsJzT0RD1jtMMjGWo/yiIduBs3IEtKslu2N9O0PeaXD84he/6DNNDp1iMKsCF3UyBzGgfpC9znr1oz79yBNJF7PsJ554IvzN3/xN4Lh1JBesFhnPfmCybd+P9lOelJ2646g/UgzOLMEu4+677/bZNTPsidaR/yIXKhKAxkx30B1aAuTmzZsX1q1bN+Z27c0DDFoIOwyYIjPbawpdPJ2ElSWD7tyg0xgnhoucLsrSTXyWZ9bpoBMcf/VaWzZ6wKQ+JsnA8BM6NuHIx9VZph45fiSuJKG9AFMCEe3KIaPPy6lDdikFGLQYIJl1IdLGEE+DZxov32cKjEcB+hGgglNRd+/e7eoCmO5M6U/UHzuJo2bsyeZP3MMIJ+OkIhkPpE0mj6n4LSADFQkrSdj/op1r/6bdF70Mv96YJSslOHH1rKlJjh5yHupZNMQ3x6xOWgaYKODCxEKuGviZj8VVIgts2aW/s/eTdQ4WLFOBBtJt3VveqF/WGKDBDd0Ywr/+Y7RtIF4tuiXVKSHE67bC5eXNVmf746ISWr7KjFNN3eVl8JLlnw4pwMDP5kecL/Iv//IvIyz8U6aQ3neYdNtoY83keKeLBBhUe+2wBcCRD/Uq16383Ov8p2t60I32wv4AkCGGqNl9Wm/1gbQtFEa8qnYhPI3DM05xq9qtKix+Vd8v0gakgKxuALBzvLsORJtIrthCIQUqA7UqWoyXfq/pMZEyjFfG8d7TZwAUAIulS5f6KapXYSvYxvUXYLgkw0TmnEfhKxXalHKQghH1Yz+CHQF2Be1Wh3RbZoAE9ijuFwwdps0zjsPBeIZm5Pu2SQ/cN4AG03d9hsUFExSf8NmkHHmTZ1oOwpBkvGbSk5OmLuGIdYw2oQPxsuuIAgz8DFowA2ab2GDUwdA7KYwGKnwuzfoYTBSmOGJKpMu94vJMHAZR6qaLcMJ08SyXRc6iRO989SsxM7WbntOc0rbVvd5Xxeed2ljt2S6e0mnSV5lY1i2DT+wEJuP4jwpcDFJdJ1OnyX7L/x5Qge3FeOqn/gEMmBHMEv8us8XY8lwIu7db3QvuSDgOhta4E6NMykJ5uFYOhbD2JrMnWB0ZvMo5kTJSt7R+MG6e05mj0td22qgkOL2UU0xv3RTtMDabTYYXuSg3XpruRMqmb0hHdSeMZ8p5eL+t/jFgA8hhh9arzIATp/LGp/xbQQEGKmZaqEM4HZLtm9EZE64BnM96OaCRbpUTY8EXoLjatrPnmQGEMAYRZi0aWEiH91jpExeQoXQASdSFQV51gulxzztABZfi4XNl1xsKlPuMACBtwDv1MdpLzIE4ant8nPy0VPpe4JF2hPnSfoqv/JVP+j33el8On+hzOR/KxL4f7FqKHQp1XL58eStf6j2eS9NEgqFN7npd9vHKMYjvoR9jAZKhuXPnuqSItk9plpa7fwCDUsCscDAoGBXSASQZrSWY8fVA/AKGWDUx31bALF0RV3hErt598ag30gobdP0wMJafvvVmlApQd/vTBg4dA2wJhLE8lFUlGHpCK2w+OPPjlbO20+aLFh/pRyEB6b5E3X3Bn5QysgU4q1pOHo2gBwPODv7A3WU2/WLzZ2TQYrdOJBiplX8dtW03qDIwMFiwZwA78S1atMgHDHbmUzh+OlMBUMhpFkM65MEFs4HpoP/mEjMCcPAOoMEFwEI9hPj5wIEDSjL7PaIA7Ua7wAS414ZItCX3al/iEMYzQEPf4ZedQArtCiOnTWk/+jLLQwlj9RPxuJdLGbP6YhqmeBP1xdzkkwdlYxvxjRs3erLKt9s86O+oA26//faOPlU+rGjhfwA9cIT3ss7lwgCkUAWhttD/sRynF8+kDU0w7mQFCWOA6lyV/uheVBWrzjAAJUz7OhO1258hnDUGyxJMmOUgOSQI7NsBuOB0UXbftE7TtRO4YNb2qq0C4TCwwzbAcn/CGDXSAR0yBmiAaVuj+jbr2GCwL8aKoWj/ceNtcUvxR78VpR6AlEac1dsGmfCOLVflOHeAF7YoFYNSI8WZYpkw0DAzYobFTIvBCMcflcG5CUdeMBQGC2Z4bJjDVssMUDfeeKMPVgANmA8DFz6DC8wJRx00kKUDDOFcYkYwGu5hQgy4MCQ2D0OE/bnPfc6X5GaA0bsWpy24YDi0GW1L+61cudKBJJb/7BEBY8AnHm1KHDEp2pX3ZUc7qi0BiUjgYKDYOrAkljamX9PmKcAop1PHM32Oesunn23ZsiXce++9XWeX9mfAN/+DD37wg56O8miXqP4TLA+GHgIYxB/v23ZpdhJOWyNVuOeee/x/LclVJ992G0cAY2hoyMcP6iy6l9PqP8Bgog5jYuBCn/+qzYrfspl9v51jhwRAIF3hLI4FtpEW9+wDYR26KwfzAEggddi5Ja4EOXXCluoao/adO22FBnFcgmMp25+mlc8pkxSwzfjBvQbItpokw3SL9/10jMNqHKQg9kd3x3d1OqWPz4oSwBL7dQCEtJqmW9rUWd4BSZs/IY7BGVCBMRriXAZjvVNRy88K78ZPB0q+0wDH4ANz4RTKD3/4w35+AzMSBlJ01gyqxIHp4Ovie+7lyukrD3wNOsSnLvgwJ9Imb+oM0yNMTun1ou5Kc6b5nMWxYcOGcNttt7XaGOaDhArQAJjgoj1gFNBcUou0faskGLQLF20nSRWSApZwPvjggy6Veuihh1wi9eijj7p0DiDZdLtSRgAGG9YhIaQM1DXtu532i7Vr1/r/hH7bqaO+0BoAxjkpTTjKx3/4N37jNzxvwGJdjr6BZAyJp8YItXE5z/4DDEqEXYH9CSLjHh7AyoVt7Fm4QUySQZA9LjioCxXFWCeKtiukdXoHDiwtRWqx46W4wRjLTU1c7Et0XS0CPYoCwI8oA4+UAQZ+mQESQAkzjNvviRIP3xG1EElGHtauFD0KLzKhToAjysb5KUgyuES3HuU2nZJh8EPEzADIzL1qK3Di9NppAMBnoGVwYPBkZsaSvtWrV/sgXDUw8Y2+77Rc5fhiWKob75lNox7KrncUoF0BFzB62hTQKCkFbcA9V9qmtIkulaTcfgrHJy7vAZEADUAi/Zl7JGBIM1BPwNgB04Sr3dN06rxHBYf0AIkKAAiQNRGAwU6VlB26duOYPMB8m3IAGkkwAFNVEqhelgVaqj+NlW5/AYZ1UneoH2aZVIDVJNzXMMCORYRR75S/+5TRLg7u2mAqCU6EVblHfThGAOeJsKnYt/5vBBaczcHMH+bMfhKohApyjKi/BbsjTwcgFnDBQMqr9vwfn482GoAfVCtshoXdRq/5k+hRFKVVfyQtgJ2zJuLftyOEc1bHO++LsfhmInRSHtPQ16DOUsJ9+/a5CBcxajqLr2sgVrpID7j+5E/+xAHGpk2bfPBlsOCCadThxLDkk0d6X0eeMylNaEnbAS5++7d/22fdSKNoUxzvFAc/pX35uRu6kS4XM2j62J133un96o477gif//zn3c7mkUce8STJR/2wmzy6jUs+gBqkKxwauG3bNlf/IcVJ691JutSNMgNQxnLEUd3IQ/Qe65teviNv8qScABsARrd17bY85Dee6y/AoHTWGH5x8BWMsoNCj1epnr+nTHQwlqYivejGASC4ztlMjb0+UCkANN4wdQiIgrStc3TsiEt6oIiTJglhAEGy0q9NyjD25HrljFXH6gLooE1baKnjms2YiKhHmLkDLprSVTMYcDGjRWJxww03uIoCUScDESCn7gFpxjRwnypK+6H+oI1pV2ayKeOjWMTpZTsrLWa05AWogclxrV+/3qVN8P6rAABAAElEQVQH7KzJO6QKTTqBDBmgTjRv1bHT77uN32m6ncQjb/3X6y5HJ+n3H2BANTFwpAQwcMCG2yEYE+2G+XbSAt3EscYyuZqpbszeAcnFErN1oGzdOFQinN3x1X+L+0acMFBA3dwBFnQPUy5cVZ0tahRNQJMiHn9YDDsPHbCwAshQZpJSnCJqbZ6K/aPHo13IHe+LS1YxSM2uRQEGWP0hv/KVr7gEo64BV/koc56ZYWIN/8d//Mfhlltu8ZkmsxzNQiYiPlb62R8cCgBYmbnT1jjavtwf6iit+hFpo4JBWvDpT3/aQQXqElQozz77bCtrlYn/Ra9dmjZqEow9ZZPS67yUnuhcR32UR6c+ZUnbo9Pv6ohnU84BcdhhYJiCD5McFEdZbCB2CQbggll6J44/DmoLpBb7d0U1AgasAk6dpDFuHMuDfFxK0vs/6rjZpxGwwQBMHTGwc86kGdmNogBSAmZVrBzhYLMmnAY+ZrWIrYeGhnxlAUxgUAahJugwU/KAwQ0Kk0OagiQFNRyrlFDXNAVkRQPAFsaWrGBqwgncNJHXVMijy+l4jVVCUoCKBB+JRmGzWGOOnSVNWVg1wnkjgJ9OnDN9k0y8+Ua0TXjGZveoRlgp0g488c1YbgTmKuLqk9aS3hGRxkptcu9U1rQuHIRG/Z57MtqqLF89uTym2dcMPNoXgrMiMDxLnQbENKxX9wCJm2++OXziE59wkIENRp359arcOZ3uKTAIs1eBWlQ0uE9+8pO+ouNLX/qSM3qAdp39L00bVSQ2T0gLM/Pvvj9N9ovBARjUBIbVuuxZDHSytZzs916mLhOB2R7aZ8DicDTqRHJBOjjqlWIBMWx/OcmfctqTTK7jz6kb9dhn0hpW2pw6FjdQm8iKm44znVoRjx496uJrbDCQZNTh0kEUYMEgz7HVAAzExNLLp/HqKMcgplmnEesg1rffZRKjZy8O7I3oh9o7g7LpfR3lVNqoZliqiiQD9ZGMXuvIM6c5mgKDBTBGl2+AQlJE0EGxrDOHM6YewbjTVSPGfGUEyecAgW7cmCCklFjpsZtsuoqb5qOltSy7RUWCugTbFVYFCVh1lfj0isyAx5JUbT1M7WDyGgjrqC3powpBYsHyQfa9YIBlBtmUqLqOek00TegxE4HVROnVi+/o39iDcLHkk2Wrdbmq/xKSC/53kh4SJ/eBulpgdLodGhSM/rDnIYj5mdXht0T+Pc+l+wRZGsqKD9QdNjD7LL1dKoAAyo7tBQx224smwThq37LPhdWtZdDZLoEpFg7m0kXdoQ+Sm6MHQ3jW1EIsX4UWTpcUjUyxevaouCyXQz2CE7OrY7AjTaQXXOw18fDDD/tWxwzwWPcTPhMd9YfRAa5mKg2abHf1Q86sgfZ33XWXr2BK+77u6yoXgAZQzwXQQHJYBUTqyn+mpzs4Iw1MyJkwTHqAmBFlecfAAZfvV9FB2WC0xGXLb4yLvD4dfDcdeiN1ZSdWNuDCB2Bk5xRATMtA15SDicqiX7s31j2gN1W3ieQDPbigQXbNUQCaIzljJRN7NPDclJNhNeqRpgw9m6rbVMinuZYeixowJRgxKxHesTMuLo4jKRgrrV6+o1wABZglFxtcvT3eWm4bvN62OlCXUya9eN2MH/lDMaj5bB+fm2ngHDiV6oHEhy3LtzxvZ6zsiwehed2nSZ1L1e3kkRkTF4ebvfDCC/6JwuqYTQlEACrY3Y+ZI3pwhXdS5ukYJwOL/rQqEiP2x8AOiD1YsAOq2x5GfR2AgXoEGxB2Fs0SjGb7wOAAjIsGMH5iqghsF8S4jFf11xVMEdUG0ogztrRwLB2igAMSDCQeHAj2rtXHDS76XpmGSGn1pP4ARnYr3bMztqfatKFSDFI2DGrSBdcpwRADFXhhnwtABuJpxNR6P0i0yWWZ/hSgP9L3UE/RH5GqNdUX9V9AgsGVXbMU6C/AgOn4BUMyZsxsHzWJ22E0S4gRuYEr/CpuKBMSCVaEvGFlHItZAjKQeqAaYCni2wJMRVqq84gMp/BDuT48U382ANu/2+xQbMYO4CjHm8JV7rboDGwsS2XJHFb0chr88Cfr0gGb9Ji5MZgzc8TAEz+NM9n8puL3vaDzVKx3v8sso2KALmoSgC9SDfpjnX1SaZM/6hEkGbkPNNsbBgNgwIxfR6VgonVmvp1uZlUbrQowkEoeOGdjs+1Ex/bclHcspuAMFaZql5aLTHcGq/pBOurM88H9dqjblhC2mrrkwK7aWmuQE2ZwQzzLqaksmUNMW6cdgAZVaMKpmkNDQ63tmweZTrls05cC9ElUIhwYhtGx9seoW13B/0xgGwkiBp/8H7NrjgKDsUyVRkd8xQqEQe0AgAqOWnc1jt37rp7OTZtrramWE1IM3Cu2msRBB39uw7Q24MwkJxUJsyjucQy6dc+mmC0ixdBscSbRPNd1sCgAs2cFE0CD/oiru/+nFABYZHCRUqSZ+/5KMGT8iCoBCQEqCJaDatbfDA3GyAXRtV1IVLDBOGwz8gN7bDOpnWODIa8XjBTyFswUb2bxVSOdAQqub385hKceifuBADrGkv6M0RpT8RWDKOoRVCOsImEWVZcEA9CiC1px5sjatWtHhE1FGuYyT20K0Cexu0BFggQDdZ1ARhM1kxRD4L6JPHMekQJwwP479oxgrwmkGAPJfAqRP9IVNs1iAy0YpduLFO9SKgIsABmG1t2fccgiJYbdY+wKcOTQN2xtZpBjcGXmhB1G07MoDDsljp5BJM9VHVAKACqQYDS9FwsAA3CRAUbzHaN/KhKAhA2+PsPdu92kF4eikWfzNBido0BOS+JgZWUlyVt2IcHg3I1V6yJ4uHZ2rAcgQt8hAjTEbqN7NHhko613i8SUpuKOzn2ahBjNBKwAFqeNFru3hrB2Y9zhk7afAQ6AgXEZ9hfogQEaDHhcdbuVK1f6MtW688npZwqMRQH+A0jttKqJ1SQAjbqc/lv4gHqAhWwwyJPyZNcMBforwWDPC+wu9prK4VT5dEkG4PoH4e7IbB3zgtlhnLCDy/buCGGXMUwczMIZRlFm7DM4g2P2XPPtALcWMynitZ7j59PqtyCBgwv+x1zsjWHqgXBgbzxdtpNdUacJURjMGOBQjQAuuNcA2Osqkq4u0kYcjR1GdpkC/aYA/wMuVCVI1QAcuMzs+90y9ebfX4Ah0TnM+mQZYNRb8QmnjjrnpB3khdRl98vRKLUFLopUXYJhwAKAYYZN0cF5Z6hDtYQKDOkPZ5VwP51BVqmZywCD13WCDGU/f/78DDBEjOz3nQKACSQX5d08M8joe9PUVoD65FSdFBlgwe6Yr9jeAOyd4Dx4gBgxRXFpmv9EpgiztD9K2GHgAjHf4mXx2nBbPGqeDzjgy6z3w4rVcfktS1vtM2eqYqykoftOaDUV46T1A0wipTpoIONqo81d7zd6FdIdaDGNnfbBKEsw6gIZMiLVksA8gE/jzjWFqkY/xP4C26AmjTxForr+b0o/+6Mp0B+AAZOG+cBwWD2CmmRQXQtkFAV0/GM/lBvGyKyc+ly/JoRZ18blq0gwLjfJxXXzIzPl2ffEsDRSpjsTQIaTzeil3VABkydsC3UHlAbEAGTQZBqDDCQYWqKqQU5+0at66glgIIpG751dpsCgUIC+iZpEKpImyiWALb+JPHMekQLNAwyYCTt2sgrjpR9Hkbla4xJ7J5fcKqhvfgsUFDNtymZMw5nic0+HcGhfZJqbHojSjOsWBBvZQ1hnBo2cKMrpoqw8YZWMGOkg1a8OwqaggXsugBi7e3LC7D0/FcLceSFcazYCokkd5ehzmgAJDMww8sTYU0aedRaL2SEXEox+zBTrrFtOO1NgPAoAJMoXkpMMtsejXO/fNwswxGjYdpvlnmxchU3DVHXUB3uCc7ZK4tihePYGyzCZrcNMMWS6xqQaCxZFVRBhAJOWm+4oo1XR4sbqi7QKoHXapFdIMaDPNN98C5Ah4846JReitgZXAQ2FZz9TYKZRQP8FJCaSmvAfJDy7+inQHMAQuMBnwyouZvevGdDwxrbwQee36pOUk3q4Mx91iW8UZjPzWbYc87a7TTVijHPohhAWLo6z9VcsDjtacliaf6vvi2SmoycapX9mtoJ/y64ffifS5uO/EW1WpunOqAxmWirXBLhQN2IAZUDNA6kokv1BoUDTfZL/AWC7zqWxg0LbQStHcwCDmmOHwOFfAItjtmunz/adWw8aXdqXpwoXwEi5kMxQp/27TEUyK6qCJM3wDaaEUNonP+3fOOgwOiDBQKIDMAOMzbku0jAFI9OAGIAK1CKoRwAaTTjEwVwMqk0P5k3UL+eRKdApBdT/szSvU4r1Nl5zAAPGwQD7ttlesI/EAdPFIy737aQTrp3c9raqPUjNmSPpJEChFWbBbHkerE7bX4rGnntslcyVZothg32UXNhr4nOJkabf2+tp7byu0M4u7DDYgOyUrbDBZoUlvaLJNCEC4EIAg30wpCapu3osA8TAMwOMuimd0x9kCkhiiAQD6QWXAMcgl3s6la05gAHVkFzs3WZGj4dMXWAz14ZmdH1pMOoGgIKJOrgy2wuBiWnGSDuibxk4smwVOxxOW2U579LlZoph3dFm3dlNjgIAmabAzORKmr+eaRRgNRUnCtM/m3AACi7ABatXMsBogurDedQPMMRUyZOTSNkTAsPOdGnqe5IIlLnQcEHb3rVj1mm+LYnDBNKvzDhJR0VvxeOdBZI/xoz4gA1D0TPWtdpCxDKaMMCgNjpjqpI5Jr2ARpfY9Z7RqV2bTkECSoqh2VQTVSAv1DFN5tlEvXIeU5sC9Mcm1YXq/4AK2WFkgNFsH6ofYFAfGMlZW6a502arj38nnuVB+CjGQ+AUc+AJOfFPWat6/SxwJoML0ablFwSDJu+Ysed26xNvWv9YtT6EJctCmG8rbrKbFAU4tVX7bjCgMnPLLlOgnxQQ6KVfvvbaay0JhkBAr8tGukobVeE1tvEhG3xlgNFrSo+dXgPTamarNpPnDA9E4izr5Dm7GU4BpDxGAvZDQbJ1zjbgSqVaM5w6k6m+BvOmjEonU9b87cyiAH2yib1gRFUABRcSDK7smqVAzRQ3DoLom+WZj34zhC3PRYCB6mCEg9NwTcDpU/muDkFqYLp8jk1313o5gQy6+ASJhV/2jbJsheldye8i+akfFaIUDuNe7e555EAIj1j/OLRPb7M/CQoIYLDBF6tXsssUGAQKYHeBsfO5c+ccZDRRJmwv2GAL6cXs2bPdFiMDjSYoH/MQB+59jjBW9OwYdp46acsS7eKYc5i+IUp3hdfbzC1fDAXn2TbdnAfCuSDKr7cZ5dR6RQGYICo0Nis7tNckGrYah/6T3YQowCyRwRxVCQN6dpkC/aYAfRKwy4WaROqLusuFegSAwcXS7awiqZviI9Ov0QajABicnnnaDDvZ94BlnIipfGmqzWCRNgAyJsNMBFKUBnyJPObZ0kd2CmWW7LNlDAgz0xrZ/APwBPjDRodzaY4ctF1PF9v24Wb0yfLeDAwn1EAM5gzgqa57QgnljzIFekQB+qMABj59tAknCYYARhN55jyGKdB7gCEmjvTiLZs9bX8hLks1wx436mt1LGMsijtcnh7cWbrkcd7AxXV21sWqdfFodfJnpoyrJd+YdP7tlAIFMqStABJcbFCGrQ77YvDM5luAxSkKNKT7ZXCTeJawumdvDN7kc/LkST+uffXq1f7cacvkeJkCvaQA/RG7C87jYYnqGzbRrANgSDohn//Z3Llzw4oVK9zIM++D0ctW7SwtG71rckgO2Baa49itU4WLxkjeNQkCzL1uBk/65I2qhLMurrLtu9lZM7vBpgDi/PN2rgs7omL8WXc/aYAaDHb9WCLH4Ip6BDuM7DIF+k0B+qNWNjW5RwsrqPKmc/1r/d4DDGabXNhccN7I1hdNgrDTAIYxfCwf9b7XdVa6+MyKmQlzz5Hpdz0Qwk89PAxuCJdLv1NY9uunAE3gl/2oDV43YIGqZJv1mZfNIBgJ2BQHGU0CDOWlGdzBgwfDiRNGz+wyBfpIAcAFEoxXXnnFJRioSOij2EfU4Uhb/4GFCxeG9evX5yWqdRC6gzR7DzDIFKaA7QVbgiNJgOH3w2Es+Iotf7xmdjxYa9n1puNfaAytELvD2FJXfk7f5fv6KEB/cSBhPg7bGdqNZavYZ7Tex9dT7RcJBuJZfA18TdQBcTSGntllCvSbAoAMgAVAA/UIz004DDtZQVIXmGmiDlM5j97aYIgRYFTJeRz7TKfOaam+LLXoUGLivepgSkfptpa7GnhgBQubOW26P4RlqyLTOnEshOefMomKvZfxJy2o7/GV5lRu2UEve4vGAnn0j4L2SL5eN7XaJpM80R5X2Fkuap9Br1epfAAKiWkBGQx0TQ2wR44cyQNrqT3yY38ogFpE9heoSnCSNNQJNubMmROWLVvmK0jIp0mA3x9KD1auvQUYMAFOx2T7Z5jEcTsxlU21LLjlWoylFdKbG6UrRsQzOn1sQQA6bPJ169125oWtaAGEHNxrAKRicyel05tS5VTGpUABLLzd7N7VW2a3A/jbuz2Excus3czoE0fbqH1jyJT41VI5fA2qsTrUvXdOA7X8AwcOtAZWcsmDa+9onVPqnAL0O/ok+19ol1mBbPXVzlMbP6bSJN958+aFVatW+TLV8b/MMXpNgd4CDBjA68bIj9pyQ5alIubuF0OAQWEoiIido+HZLfLeh+Kpnej6tauoi+CNrMTP4KLX/auz9ARAnf7Wh7QPBv2IdgEYTmGHagQpBgCD+6Yc9hcLFixwiUnT6pmm6pjzGXwK0PcAFCybxvBYapK6Sg7AAFyQL6u3Fi9e7EC7rvxyuu0p0BuAwawTSQGMe//uEJ55bNjIsn3ezb3Z+bJtuGVVfegj8Rh1jD6ZGQOA/uOfh8veKpFmluJ8eqFwPWe/NgoA/DY/Y4fjmUoLgHHtnHjVlmF9CQMuOAtBKhJJEjSz60XOmrWlae3fv98H2LNnz3r+lEF5p/HyfaZAnRSgbwIqWDaNFIOVTXWvJOG/JvXI0NCQ9//c9+ts5eq0ewMwSBuQAcBg9QbnSmD70G8n6Qnl4p7dItnEic2cFi0N4eprDGiYDzOjvOzd4fYiAIsMJhprPiQXaitlShg7v7KfCbY0l1lXBWRMQcdMSkae3Dfl2G+AC7E0+QMwsssUaJoCAhhIMAAXUo/UWQ76O8ad9HktU60zv5x2NQV6M9rBHLD457RUbBtOGSN/G9sLC4dPc8U1idWl6GUojKnMsAAPgIgffDOEl56N7xcuCWH1+hA+/T9D+NVPh3D9ajvJ03T9rDCBCXCWiTsvfHEP8NBVBGWvNxRQmwlo8EybAS4e+3YIB0wy5ruypu3Rm6zrTIXBVcwdSQb3dTtADOoYBnSWBmKLgV8l5ai7LDn9mUsB+hsXRp2AXJZNI02T9ELve90vkVSwwdbNN9/sBp6zZs1qVDXZjxanzrr6kX+7PHsz2mHICcA4eTRKMJAEuE2DZQs/Fk+AafTDKV8kGOwOiWpkjkkyrrTNt+babp+4tRvMONXeX2LAAvsM3+jJpDLvUYHs+kYB+tZpaxfaDOnYbGu/Bph0r+rL4AnDZ7kc4KIpCQb5IpZmxnjKAP/8+fN9sCc8i4p71bo5nU4ogN0FYBcVCStJ6H+9BhXlcrB77tKlS11FOBP6O1IhgJvsWwblfz45CQaMmwujPHZg3P6irRyxvS/eNaZAuJCFg4yGwYWyx2dWzIWx5+F9Iew2mwxE74Cga2eHsMTsMR7+H7YZ14dtU673mfrEpBvGEFySQdl12W3LKc1WQL7pOQWgMVKMI/vjSasH90Qg632r57nVkiB/dCQXiGubkmCQJxcDOzrvbdu2+eBOWHaZAk1T4MyZM97/tm7d6n6vZ9pKTz79HPuL22+/PSxatMirq/9E03VvKj+kROwzIiPaQfmv90aCwXHbp2z55zkDGUgyBtW9Y4AC6QQ7iy4wEDHbpBjYYaAWYUvxJSuiauRqAx1sFMZeHuzjgQ2HD84gjTxIN9a8YojYxSB9OmAAg/1MAH/GtCPya6w0E84IyQV64KYAhgrKIMOAs3v37rB27VoXU6OT1nJZxct+pkCdFHjiiSdcTYd6BIlancwekIG0kOWp9Hl8HOGDwnR7SWvqhZP0AlUU6qFBcRMHGAz+ReV8hgkDcKmAhQ8aDxajwhD1VQMLrHRZf3MEFDbwh0utkWaZzwmeCwzxstsnInlOgUXK4QDDmkz1pYJKU2F6HpSWnQ7lgKaiK/ursLfKG2b4idRJahLRf0DrywCQAgyYe50DLGTQQIoPwNi7d69vGY7BJ6JjykQ5sssUqIsC9D0xvyeffNIlF0jT6u775Ekfv+6668KaNWvcVx1VHj1PB586cQEwkGLwH0dNojGg33WcOMCg5Egr0JE/+Uhis1CBLsQk+lbbiPJs6LUymzoHNc5Ok06wN8YHPjpcKmsoN+6cb9KNOYZ8P/qr8UyVZx+PG4idMBsT7Es4tK3s+FbIquJ1OXp+rqAA/cTpWLxL7zH2fMPa6/BBW+ljbbD2RotbkcYABmFkxqwC6QH36Z9fg14a1qsqkCa675deeimsW7cubNy4Mdx3330+6PJOefcqv5xOpgD9igubAFQi2P986Utfcuand6ISz5N1aR+WrROnB3OCKueQ6P+Wxptsnt1+T95c1Fd+t2mMF1+GtMePH/d9P/pZ37SsEwcYDP6AC7Z9RT3ihp3WYdRpxBz0nObayH3aecWJLIyVCDAqZsTXmhpE5VN58Q0B+7ViTVSh7NkWl69eZpuHEd8BRpF++ftG6jaNM4GeagtVkzATrXpfYyM3thEvx1HcAfP5oyMtkJEn0oxeDKztqqlBjPfcM5thBQl68NOnT/uzvk3jKiz7mQKTpQD9ihk1fY7t6lk9gkuZK3F67UgfkMHmWtg8IcmQxHAQGG5a/17XHUDHf10SjEGoL3WcGMBA1QC4eOGp4Lt2vnp+mF4tXt77DjScyQTv1KlhTthX7LKtqFk9crXZX9x4+2imhY0Gthm/9jumMrEZNLYbu7fGOh81g1HAFXSQK1eZfJSn4mR/fAqIZtAPxzPAkOvJ75s6y+xm1m+M0ibUWornkQfrhz869hcADLYsvnDhQtiyxZZzm6tzwBEVBDIef/zxsHPnTrcDYfnehg0b/F4DfVMDkvKjfOm9ypv9qUkBtSUz6aNHj4ann346/PM//7NLz9S3FKfXNUzTB1Tcc8894ZZbbvGVUwB6ve91vmOlR77YXNXtoCkXti2s0oHunL2CBIcxBzfZlWtV7dYpTScIMGygZxnnBQMW2Co4QzBmUPCDuonak/TZpwNR+ynbKZLNt1itwP4XbOgkB+PieZaFAzbYO+O8ST4AWKycQUV0xoCHHPGdFgrIfs8oAF2hL9IL2oolq1fZMmMAxoA7/oz8yZlVoRvuh2Nmw4xy3759LjZevny5q2wYkLPLFOgVBbCzYIt6DIsR12PY2ZTjfwZjZ3t8VJJILybLXCdadvKmLE05QACrSFBJMYnhXgCjjjKQHxIT2XtAe9RRZeDRPQVgrqgYjh8KYY9JAJjVsykVDACDyIEEGYVoIS3bRSsr7nvfiMtSV98QpRXXzY+MjIrA0HDsjYFNxo3GHNicCwb33BNxhcnXvxjrDl2Iz8W9nNKAPtl1RwHRrGgG/5g9MXA//qHtwro8hLsfjM8D/CuAccMNN7jYlqISpj9j1QxhMtVRemn6DDpcf//3f++zm7/6q79yicratWt9EOYbfdeLQVlpyVeaKhP14x2i3ex6TwHRVvQX3fF1322uSks+3ys9pfnoo4+G559/PvzDP/xDi9Gl8bvNs1185ZeWQbZOd999t/dtSS/SuO3S63U4y2SR5tTtRFt8VKDf//73fXku/2vGG+qOuko0kK/vVD6eeadL4fj6RmHEBcBo+TH1hNZIRsugpnuAYYn7LJIlg9gxMJOXcaNKMCV8GL5xLrajRkqx48W4BPIaW6HAM9IMI3jL6R6xF+/W32RSHAMaP7FVKdaw4eBum1WbfQBhl2Qw0aJbXTc7TVWFFG2jqbautBVADYgjJ1sViS3Lf9jJptvN99pJ8Ytf/GJYa4PQz/7sz/qMjwOhNOMrD8zlwaicX1V9AA5cDG7yJcY9duyYz25Zvsh9dr2jgPTwSKxoTzEMAB6XnuV3kzP9gIs2lc8qJdoVQ2I20fr85z/vbctySc1uu8ljInHVP5FaIL3AyJP9LyZSx4nkX/UNdiDQqSkHDWD0/L8fe+wxt7v6vd/7PWf4SE6hhfoAZRLN8LlSoK9y04do2/Pnz3t6tDX/V8AFajDZdt12222+qdn69esnATCsEO6YcSDBOGaGO6hILFP4tDuYsOIVQYPlFQWljA4YzLc/giEGO9LdJDGXG3hYYxIKAAQ7eApUqBI8X2F6rcvtu1UWD8fyVr5FZP+mgQsTG0UaWBzyaUcPpd3ufUw9/0IBI2N0diO6sdT4Smsv2u8y8xFH6p2iD5i/ZMkSV0vwZ8fpT86z7usqsvJkUIARfOMb3/AZDrsdrjWgIaM4wAWMCadyaRBqV7ZUOqF64DNoMegxYDFYke+uXbvC5s2bfYXBc889N0KEPl4+7fLP4ZEC0E8AA2ZAWwos4tMeApEpzdQ30rD0vtymtCcXbYtKhAumhmrkP//zP/1T9Z00He6VVjl8os/Kh3SRGrDvBUCe+/HqNdE8O/mOFWNi1Kqz/E6+7yQO6amO3Ks9nnnmGV+a/iu/8is+3mALwn9UbS+akQdl5Fv6hi4BQ8YKpJ6HDx/2fUwAGvx3WZnGCiHeEeeTn/ykSy8AHmmZSL97CQY2C4f3hbDNjCRhquwhYQWcEi4tp+4Z7Fm6uuWFuAmX/WnCbXdH8Xu7SvGNvl9iYvo5plZZc0PcXwOaPGvie2bXnARKPEBZC4UVtCKcdLhwSi8+5d+UAgWJWkHQDMkZq5eefzKetrp0hfXFyBhbNG190P8b/tSsy+fPiygRZssZIXU6/uy4dEDhmUGFQQOjMAYKZnvYZGhgppzYZmAshtgZI1VZ5PN96siD2SppMuAw44HhMPAwIJEHAxKrCYjHDIg4XIRrEE7TzPfdU0BM4nvf+17Ys2ePz+RpNxgt4AKfNuRidg2zoW15R1g7R9+hrWAeal9myQBG9P2AConKiSOnvqdn/Kqw9P1E7ykj7lOf+lQYGhpyO6eyqH6iaU/kO8rD/wlpisA3zLsJB42RLvC/+53f+R1vY6lmaXfABm0vMEHbMibhA0ppQ/63/C9pX0AL/1t8vuE9PnGVxvXXX++TlCqj1u4Bhu9saWoFZo5WiGnhGIiRyiCRYcMwNtbCzgKJRtF529bzcpNoXGMSj8vtQt2C4SF2HOyxwcZjpPOegZYCV7RNJ7/ojAICG/xhGdDYoh4wxwoTAYzOUmo8FoMef0LOBemnYxBiwNDgAaPngmlghMp7mA/v8RmY2gEM6gFYYpACWDDwAC5gQgxUMCDSBtCQPnpiuboYjtKfaT70pA3279/vPm2G2iAFGGpPwgAgAhrtaAWzTBkPjAhAQVvCxGBCeobh9MNRBy6YOqCYugl09KM85AmdAReURYy4qbLwX+Rigz2VQ8ByPIBB+/K/5Xv+qwANxgE50ZW+pv8vedCX9E5x8TsHGGK03/2q2V7YyhGWplom7jToT0Umqjqw3PTQPjv34qCBDZsdD5lEYtP9tsJkTqxj+Vf0IBwggt3GTWYPgLvhlijdefk5Wwr7sl1boyqJPyASH1x5s640PZUpxsy/6leQzmlDgF0sHX7elkovuz620+JlA0sr/owMNrhPfOITfj7Iyy9b3yic/pz60yq8Fz5pKv1yegx+kjZg+U9cBkbiM3AwcFNu/HZpMADxHbMbBiQGJw2qSkv1kk9aSk9h5bLl5+4pAJiTpCj9WswfWov2ahv8Kqf2oU3VnsRTOD7pjdd+472vyrtdmPJWOXgeGhoKK1euDB/72MfcFoC+2m8H2KHelAsADhiT6yU9lFZKF4WRL/0BAEiYLsqh+Pi6CE/jKB18xVc/0jPfoPpFilFF984BBoACiQVndDDDn44OvgUIQA10uXXS1eviMyDDGsKvTuqNwSH7Z6xYHb+3gToc3BfF+pyFQh6X2JXd5CjASiBUJUidjh82tdbgAoy0ohihwdRB/TBnGHLdLh0kyEuDh/LlWWHyKZfCuU8HFX2HDwMinhiRvlGc8rPCq3zyIH52E6dAO/ql4WqTNKwqR7VHGo/7qvCq7+sMowyAX1R7GBoKENeZZ6dpUzYubJwAcCnA6DSNXsRL260qPb2XTxzdy0/D0jRUR+iOzUkVUO0MYPCHx54Asf/eXTEPI17LTeXxQPWgju8VKh8kDpx7sXxVvNZsMMBhpFLcVsWTm/QdG3exGoV9M9bZahPUSt/7ejzbhKW9iPZd7ESeBfFSGrZIazd6n2Q1Y2+hkWjDPYwZtRZ9EhXXrXcPkyZtj+HQvt3xZ5S7//77fUaIQRoibTFo3hMv/WPrm174Vekqv/I7nqVT10DSrgzlb5nlKEwznvTbcnqKqzgqk56zX02BMt2IRdh49NN3ahv51bkMh+o75TP8ZvgujTMcOrk76lN2hMHQUDvecccdAYNGqYPKcZt+hgZitjfddJOXEbsY0Ub10XMvypemVU4/fae80rD0Xu/xq8LTtKkjUgvGMdS+VVLOsQEGzO0d079wbXshzhRHtLUeUu6YFnGK3rMBF2oSDAgP74PUZlexYNjws6LDj6gpIkdox3WlSS9QnzzwM1Hywxka2A0ctHRZ5ouYH/UMUo2WS+iqvEgrO6NAQRvRA/qg1mLDt2OHorpq0dKBpJT+sBjcIVa86667fHnfoUOHnClQaOKkf+K6K6IypfkoTOWQn8Zpd8+3aR0UL00DRiDjQ97v27dP0bLfAwqo/cZLqtN446XT5Hv6ERfMDSPK97///b5zJzvTIs2o6ntNlq+c17333utB7KSbAu9yvF4+N9WugDuksNhtcQlUpXUZG2AQk1kiRnQc9IUUYyY4NgwDVB01hmVGa2HIJBgc6Y5EAl9MfyxaEAcmiOSDa+XaaPB5hd2jZoKm8EqkQr6XSBlkjJV4fjeCAqzcQUoEWGPZMAAD2nfSTiMSauaBPyYMFv0shlgp822mBJ3looFKfmdfjR2LurIklpUrGJzxnAHG2DTLb0dTAGaG8TESAv5HHGxWxeBGf9lsCMcD8B+nbJ1Kipot4cRzQ2KBekRX1Thm3G4MxwCNPcJRmyEe3BsZowZtJtQwSHetGwUkfvHOv+Mjcwz+Va5deFXcXoUpT8qne9Lm3vTkZqETwle/EHfwfPDhEK5fbce5Lx6OK3pUlSd9h+HRpSbNGDIJBmBjw21RkoEU4zlb1nrsiBmZ7o/AxqUZVh7AjJfJymKPLdeGfK33g3aT0kHLaagbzv2iQqoXAG+ES96rjdI0ZeX83182EGjggkPqWFGCLcwAOf0BYawYgf3cz/2cb0rElsrYZMDIe8nMB6jqXi9mmDCFn//5nw+/+Iu/6CoYBt3f/M3f9KJCn+la/0Fqi6laFv1/6CNIADkd+NOf/rTfw+QGBWCk/Rj1DfYXAA3+5xjgqo+n8aZKm6gNKC+TJMYxJgyaLJTr0R5gMJBzMcOGCTLjRprRrRMjkE+a3OMPuoPRob7AqBUanDBDwtlm8Hm1HbaF6gNVSDeOeqMucaZa0IA0lqyINMGOgPNNUKGI/lOATN2QwCpq0YtKQQ/vF0kYr6r6x5h0sJe8xx7jKpNgQEfOKBkwgCE68SdFisEgie4SHSYAYzo7Bn+YAAauDLZYnbPUEfsTZkIMuhp4pzMdct0mRwH6Ef+fdevWeT/iv0O/Shnf5HLo7deoEGDAlJPVHGVHuadqv2fCQP2qbC9Uz2qAwQya6y1jdhg7bnkuDt7MFKsG+hQswBy4PMz8y4yBepj5hCltStD6TonybVG01jsVtWa/Kj/CWDkDw9q/K+5eev8H7UwSkz5wcaqn6ovfiSMeoAIGyDV/UQhLr4+Si5eeibYEP/gvAxoG6Fx1QltYOdJZvbJit1EcXlX5/WWffqinmlVla9HI3iFhoNws8ZVT37jIh/p45K2iDvsWD3qSGCtJ2Hdk73ZTkyyz9lkz3D7DH/T9jkESYHHfffcFlqqykgQxKrP5dMDRoDlVBiCVNyUwYVwwgbVr14Y///M/97MSOO2SjZtYnYJNBgalLKnLbmZToKoPiSL8D9jPAcb2mc98xpk2M2j1McUbJB/bBMA056OwrwRG3aqj/tc8636Qyl5VFsopegOcWCXDZAmnOqh+hFUDDBgBM3dm7bpgtJ04ZuhXWYazr4vbajPjd/WAMRTSQArCiZhIRDDMI59O0+4k/7riOOAygHXcVBnUkZUiXMtXRgaXMsrxygB95bh3qYb5SDI42fXO95kUw+wKoA+oF6Z5YbwZrtJMGLPy6JevIjmSsEIABJD+sBnZfFMz2UBhnCeCAOJg9wKIRYIjSQ59w8HVGPUSgCEuK3TOnIptk26+ldK8X/RI8uVPCNCA6TKT/9a3vuVAo0qSMRUGoHRQoZp6liHY7bff7luTs6sg+nLei1mwORJgA/GxnAYrPWd/5lEg7feI4JktsxwV406WprI0kjjqa4NIIf7jgAz6PVt4s/EcG5dN1f6d0lq2ZEgw2rn2AAOmhpEjDBXjTh/oxxjklQOz8jnGJNdvDGGu7VgI0wThcJEmqzOYaXLs+dbNcZbeAhgdpK98mvRhYH4Z89uzI64Aocwc4b7AJBAwym4ABmVPGR6Ml4vlsDBTTmzltFrsXra9GKVHGDK6q6BRRVAReXA86kdHRGKz0MDFzZsiuJhnfQSVEfRAUkT/4GwXDDZ3vByBKODOQUpSUYGKFk3snWFVl/oc3mfLhA3IXDR68h15p/T2b/r/w5+VmQ265H/913/1DXmqAAYlJe6gDkrpoJNSlcEVJoBBJ5uLMci+730Gns1RF6QaOAz12EKc3T6zyxRIKaB+D7jgQL5f/uVf9v7CqhFcu76XptGPe5ULaQuqUJam/+AHP/BtvAEYU93x/6VNZKzdrj7VAIPY2B1sMwBw6kRUa4wY0Ivk0jAY7LwFZsC4JoILNpliL4hr7UIczg6WMAoYM+dGQGTes732U48Mly/hIcOBfbgTQ1J5rPjO45hhU4edxvw4+IxdJDH6ZPnpRJ3y8u+NGTLDdxG/Mcl5CyOtoBmbne015svZKczUW99ROCuol5V7ORVezw36ZK2iUE6kPWvWRTpdvybSDckNgFQOunLRj16zuvLurElwdrwUE/P6FnWqqhrv+f60rdJZaoAMGs2yvneJXQPoGIRgwMwEfuu3fqtl8Ml2vezCx584BRUabAewKq0iUUYuwAWDK4CCUxZZTgiDqHIArLFmQVXf5LDpQwH6S+rKzzAy+siHP/xh70eoHMpx0u8H6Z5yYtiMzQiTCf7rX/rSl7yIqgP/8fR+kMrfriyUmQkC0iT+5+1c9RuAA0zs8L4orvYZZLskinBmpzAGmMfNd8YlnTBKF59YByJNHJ1pwRJjBDbdfMvygGn+6PH4PrUziLH785t2ePp+yszEBJHsEO+YzbrGEBF1XQHSBLgg/ZljaiYABnliy4IkiVU9iP7Zq0P08jKWCsojHF5077ogPfwACQWzVfoGQIyD4VCdEa46UE6nu5UZqQbSjFdMynW10Xnnls4LA61QsQCQkZjRBwfYoSbg+uAHP+iHn/37v/+7gwsZQKYAg2owEJXDBq16lBHAwGCKdAKx9o033ugDbVVZWWZYZQBXFTeHTS8KiLGmtVIYPhcMemhoKDz00EPej1CxTSUHQELFA9DGqPnLX/5yq/iD/l9uFbTiZmIqEpgXun+Y2ZEDBgJsxt6OSblo23JmJgq4uP8DZpNgkgvUIqAaRNOaxlpHaTm9u+mOqHNH7cA+G75LaMHN2+XZSqRHN2m5lKd8vdP5ITybYYszrTvujRKYBz9kM+0eMzHly8wbQ1KY8C13RfH/+puNTtDLGO+Lz0bwgUEoKIjviEv5CzK26C9y0Qyqn8J66avsaRlsgHCp1b0PxYPg2Kui1S/oIzyqwFZAABZ9ivioinZvi6ABuxRFi1/F31aeSMisv2I3hErpDQMZSE6upNKD6TTArF271nW1v//7vx9efPHF8PWvf92BBtIM4igetdAAnNYofZ+G13VfVQakFjjeIcJmQGWHRWafGISlUor0e5byIbEBaGHwKmNX0mq6XuTZhEvrX84vfddJ/TuJU86jyee0PmPlSzwu+hEXs376zZ/92Z+5oSSnEAM20n40VnqD8o66ADBYlv6BD3wgfO1rX3N7Iwy75dSGKa0Upjj99FUuyqQ2oi2wnwJo4BQnLaeN4iXHigVWLzCDRI0xLjOywRvA4GL9pXHWnYq9S8n7IwyBwQgbBmacHHlOfoSPm19VgjWGUSYkFKh5UAPNmRdBxrKVsfzYFNThyBdH3u8VtAJssAwT6RISjQPWQTGMZHmmSzVMKsQKjEGjoSF4B2bQir4BLVW/WEv7LerLM8CV+nEqLXWdazTH6DMYaBjTFXWHJm4wahIMSUjG/K7/L1GVMLthpo/BI3pbOR2RPEgDjsomn8GFC3EpolMGHhgE4mzqIvCh+KnPihrW1DNQQYPptiFRWtdO7qEVbT3I7d1JPbqNI0ZM/4EhI9nCQPLOO+90n6WeVUys23z6EZ9yoyKkb+ssImyO6O+A6irHN4PaB2gr/q+MW2MBvpEAA8bEwHzIGBczR1QjVkkHA860GMATUvhs2Z6vMwaAsePqG+Lskyh8187xTu8BGpseiExnl81UYSQwy7qZpPIfUUaVuagkjM46uhslYpi4bmMIq9bGQ7XYOhxgVbcTraAHYAObllvuDmGjqaHwmaVvfcFsFcwoknZjBQUHqpXrp3Zzv1TPOupAu1JmLk6ZRaoFoFR9Os0TO533mSTj+adNqnbCvi8+TPtH6754+bYBLcAx6jd2Xx1gpwGTgYTZ2kc/+tFw6623+vbHzHQ2b97sS1mZ4TMY4dJvVDWF8VzHoJSmX86Td1yAi7UmiUHdw0ZaDzzwgC9BZTCq+l7lZOAFkMBQjhw54gBLdVVe08Uv0yF9Fp3oBzAdVtXovWjFczlsLNrou7Hi9PKdylaVpt7hUy4uhRFfSzoffPBBB6cf//jHPQyASrw0blX6gx5G+3L99V//deDk4s9+9rPh4MGDgaMCAB6iCfVQu6V1Vljd9UzzVF4Kw6cOqH1oL9oGMNjOjeaQgAbfvtoG6E4dIm8kGC7aNibYreNbZraIWt42cb8Voa9OM2jsHzgVld0759s9S1Ix6GQJrs/EjYk27ayBI7CxpmNmD+0oF8ADAIJKQCoCkDF2CP1215i9RbpnSDflcVBlwAR6U/cWmGiTCO89nnUiALIDqjZxByyYPy+zAv64zHIAGswO2Cvi1KlTboHOfZn58l1Tg49IpgFHzwwyLB0EYFBu7tPzRhSvyudb1COdxq9KYyqGiYa0MYP2mjVrvP2R+rAnCEsa8QEb2umVtqet9W1VvfvRH8rlSMvXrm9SZ/o6EgvsKmBWQ0NDbrPDZmysUCir1sr5TMVn6oXqk7OI6Pf8p2nrVJIxKG1Y1XaUjXGK/y0+7djOjQQY9qFv6oRxHWL3Uc7ea8QmrgZ7RN/M6GF23Tj/3jgAAIX9EWCSzDwxYKzDUeYxnZUFhoRkAqNE9qNg9cZGsxWBcWOYyBSadMZNa8yMun9ZlR9GoFoqqyXASDEwBH3m8SjNwJ5GkihyJR3oTj0lDoAsakuCJ+VImAQTh/QHKZf6Tvl9EtVv07qiluJsESQZdGQHDV748lfD6btkTQCjXdyKz/sYlA7IWGZzMciyMQ/2GLt27Qpf+MIXwvnz591egaLyjS6pFaqYT9UgUVXVtAxV7wnTYEJczbqQXKCPRcfMfhef+tSnfIbDAKT47dKjbAIXkmDMBINP6ELduWCwzAh//dd/3Tcu+umf/mkHk88//3zYsmWLb9D01FNPObBEfYaralPRWu1IHPWLdvRvl1ZVfKVb9U5hxNGlMAFilRkfUEW7Y1dBuz/88MMOqtmADdABPYhTTktpTkVf9ENix+Zyf/RHfxS++93v+vWNb3wjnD171utL3dL+wTM00/c8y4mmeh7Pr0oj/SalN/ekr4t43Ov/zn8eFYn6XZqO7kcCDA+1ARkVBVenzjK1nDuNPXjxkFhcXsz+kQqsv9GYmonW15gPA+eC0RnBRzHPftfGy0T5TfpztZWPczhQVyE1YK+RXS9Hg0dOHAW4FWJ25/FNtRkrhrrpTylN6VYOGLrtXyWQk6Y5Re4ZZPnzYhjGSgwAB+LUJ5980mc8MGJmQjARfDm+YXAQc9FAofdVPnFw8nUvEOEv7YfBhTiABwYXmAQnRmqvC3zKzfs0LX1f9pUWgxVSD77FdfJtOa2qZ9LpdhCuSqdXYZRHl4AVKgGkPh/5yEd8d0rogF0KM3poS9t+7GMf8w3ZMAxEmkHbs3cIq41gTMyCuagrbQZTxy/XX32D+qR00b38qvqSFi711cf0nepGPxFAoC9w0TeoFz57onCPzRGAApBBHyCMWbG+rSrHVA+DRtSRSQTLt/lf0+a0J/9t1KFMJCStFI1FW3zRu+xX0Yb4qUufq75XH6ENuOfif0mbImVD0ohhNkvQaS/C27nqN24DYTNAXCdMqNuxP6bczG9K27QuTnR7yXvuWbWABIXZMptAcSAZKhKIx6yZOKWGaqYCY+Si8qhs1iFcGvSeAYx5dmGDAHP3k3DNfuE91E9Fu5IsjNt9fiBE4nhM6ZW8GvNW25cTSf2CPD1fEi3lM2ZiRSLjlUN08HhFHu7ZT7fZjVue5iLAgBiIkAogPh0aGgo7duxwqQZ/eoELBqJ00OBeV6elrYpPGPlogCMtDTiUS8eus4kQWwbDKBmUBEL4fiyn93zDLJ4Bl3QVPta3nb5TWgykuu/028nEI680v6pnmC6Gi4jKP/ShD4VNmza5SoB8YcIM5nKACqQXSDXQ2x84cCBs3brV+wJggr7ABk7cC2jwbQoyVIa0XEq/E1/fpT79IWVSvCOMNqV+3ANEYVAwUi7ABYwVuxuphZSm0tJzJ+WaanH0H4JRI8HhIox23b9/v6tDtRmX2o86EgcHbbhEKw8c4yelpe7l67+dpsU7LoFE2pH/uiRO9FmWDK9du3ZcFVY1wLDExx2ZW4O5RT1pS0yx+ufIbGbSNkhYCceocvGKODAhjBJZVsiBT4j6xfjGT6F9DGUvJkdMGkjMCokEDPmmW6P642ZTg6DmwRgRcTz2JIpfNOz/3969/VqeVHUA30qIYwaJDExg6Gk8jFwEBgMj0eFimAcT4oOJbzyY+B/4x/jOg88+8qjGkABeMioijLZcB+jJMGkaxDBNwkVcn6rf93SdffY+vc8+p0+f01Qlv12/X11W1e+7atdatery217YJYgJ3nk/004loFYf+0RNO9VOjGefq23HN/v0iW2u1tnc/HavePJ6Cl7N3wRiz3LvXwQWYk7mtHg3dRvL20RoTCefbarfv1W9ZVlgDuu10B7zo+vCW2s+TCG5v6Iuf3R/fh22DpkQZka2JoPQsVjMKPbGjRtNABkFGdHqoPg6kHRW6KQjSQcT2joTHQmfsNeZmf92zyfw3Nt+SmAYcRlhG8Ew+cob5SAd4a6wq4sOTEdLAPlmg50zXDrAXWmtp0MbDe+p3t7holywNDKHD+FP0HpXC2DtsqFYwNIaBB24eo68yT1hhA/PPffcobUCXykT2oI2wKph9EsR0TbEi4NlfGEWj6qL9R188ei43G+qg3rATjvMaJYfTAkd7+tdhHsfbUMe1gltQxuCg/cMDc9oK5PL+14Ujx5kOeO7ag8O4qKsmxZlqfIVVmszXn755cZT/wsDDfF8SiWead85Zn8dS88w9p/EH3xIu+RrU+LxURvjZ+Gm/sYzXuIdnvHRco9W/vPbcNyuYOTsh205x3CdgateugnlVQnn0zjCrn2ttfIvDe002U+VtsBp2yAjgLOQ02e+TY9QMlqaCNdTUb88ib3Dqi5WmbYgtd4Hxr8oIU1Yv7aUj0fKp8yZOtlrGmLH13X8d3Vs1Zt1pa4a/U6u1a0sMCwxpgB2aRtoUxxZpF5DudixrJ0q9OASpaNIZ6Dj1qkTEISLi1nVn18HTpD48yc+HXj88U0IDZ2NfBEgfIJRR6IT0tko8+DgoHU6FiJSLNRB+NhZjrR3vVc+UzkFCt0Iuk313ZWmdOoFAw5973IRLnxQng7a+6iHDhtmFvEavcfkDOeTHH6ET8GaYHHhE357v5jXKRjahPKUjb40wggjgknaKBWpnzScMoK9exca+BTfu6Hv2Ttqm9pFhFIUDEqjOO8dWvzp7iIQHIOTGHwVDnP/bf/P8JJPweDjUz4UCNfwDQ3P+gHtMQoBev6zyqJU8JVF8cXTfMDMh+TCS/zFZ+k4ZezCw1+phHeHgm5te/z839Vot+bs/+Hv1bBfSRZfKWkkRommFv7kk7Uo8lpNLxwswqDoWd+w7tBwye/P/9efWrXvnjh+O24sJ2En+msNth3cNNS9lbcI3GvXa2vsH/R6Xn+qKxQOy8r7nFjOFY1smJcywXc8O9y/9HxtR35ptfpi+e0DYyXEgwG/5RneNxAL3+aSv6VZMlgc6wj5P/2zvgvHWSJxTRFaHg7pFn33NcJqh7391V8u57KUonKYJgTKT5ltLU21xTfW9JCD0D7+x/UvLStG/cEO0wzZrvrt+NclaAgLAiQjG8JCmnRC3jd50jl4jvDi64h0QJwOyX06JHE6I3lcaIROy3CGH3VXb6O2jMZSzhnItvqhw+kcdayUpfvt8EOn7xoXrcIPrjrx4H5WHPN+8cMTPlzVRRug4HjmCzMKlsezyz0ecPKO9Dyr91hn75L2IS5KVbCV3yU8NBM3/ZMRwB8O7uGd//bIy/ARxtsUQzTwCA/y/3afML5wPn7mfuQ/+p5dp3XHLRg6aVMERvi7OodzORDpO9/owppVoLSteqsaRarUWsWYugFoJM0E7qNqtlaeq6syAeIq8Jr/5EHfzeC4at9KYa0w0t0DuHOt6kURa+9ZeLTtxMUD21sfWUZ0L5VCyVLg6HOuOpzmKnn1Ev1+39+flXXr1aJtqgTfKaR2HGlrod3qVuV4rs5w9ZNqF6ZGHMluVGUtyS5Om3u0FJpfqykSfD+NJW4X+pc0jT+/zkEn4V5HpNPXOUR4bKu69DodV+6lRc+VOD4nzei3hzP+oK2TowQYqXHqfp4OHvC5CAcjZRn1GcnHBdPgGiwTfxZ/pJV7frANH7UN2MKD85wwbWWTQ2esc+gmLP6YN3UQNt6Paeb9ZgRGvGDL+V/gm/9J+OXZxdKwzeF7+JV7zy60EreJh2gm7Tb6J4VXD7zmdCKO/b6XwK/K1Zv1zBQGo2JHVxMgrBmP1dZEQkSS3h/1tPJIryETINZefOWFHofmLu5YuqKZuiSO8HLvssUUkz700X7w0ntrESfzuXdV36TbpeyrmqbhAo96gSiP73y6T2v9zvtXqy8X72xvzbZW6zaOuA0Yj/HBP34rb0lAQbj9vdXqC/9U5RfmFABKxq8WzTEdRVXbuFNtybHg//yZvtXWMzem7SFrv5XfbiDtt0x/R87OuGfeNVJX4NEfPy6dAIEWpzPZx+mwOJ0YF9rtYfkZyx7D971XVx1olIt96VyWfPBhLXGZulh3wfg8cDyJRoQTP8IodUn7OCl/0o5+6IzvEBrxk379OeHTPxmBETe8c1EGOHG5TqZyPDY8G//boTn66/fHKe0WclTB0GHR8J94bCN+vgAACW9JREFUW40gf1oj/NK8WSYWs1kX4nc7tXrVXoq5coszv/dKN7ff/FadeHnQt3c6IwNN2rI1GgTX7drRYEGokzubIAud3rFtrfphhzqmk7euhUTLixHq/ngpOo4h93GtXy+rzME7qy4VR7kIrT074a11vAoReXeChOJFAXvfB/sajWsHfZrsxa91CxOe+qIp/ibf+jtGqVgPH59Zqm6+2Pn9n1/sJ6JaG1Lzfof8k8bFivKjah8vfr1bMsZyx3v0x7IdQU55wufHi+9t7UmFreeR7yF0+3Y661Ckc9tXAK3Tm8/HEQjGx2PuT0jaRgSMUvatwzqtfencnzd9+KgG3/P4P54nrV2QPqpgyNGmSMrc8mhdRkNM0xSMsSPfRNloR7of1EjVlyx16oQHwaSjdzF9W+Nh3t8I9ZWXK77ynItblAwCk0Jj3p8V5c1P9iPMjZqdxhn3SyJ08rpbfThQyHy9lSOkWQxqvq8pbRRA/KRExnx6r7bQKR39lbfmo1e/KIXFIW4UO6bwO2VtCC+0DeVZ/8MiZspmGUUfJbblCU1TXnaPUDQ8j4rnlmwzeDMC6Yw2x87Qq4jAefL0PGldRSwvus7nifd50joJh+OLPKXW4fu2xb99vqY9/mW1uvGlEgy79NQ1Io6wiJGBwBdmLpxgIjDENSG1JErabGtcr3FoJlzeFqZOde/ZSaC2Jv7eh7ti8cFnS4CVkDFN0wRNpV2nE3rTv4sALNtVfLLrhMD/7+I/q9Pzn+uWBYKfC57JM4a1BMuP+LjwLWGhIb6FVVpKbnuuOnBjmh5SvwvNgfTqzU90i9Wf/0W3mOH/xryHRObNRGAiMBGYCNwnBI5bMFKQUa2RIPO5HRamN0ZBknT39AdBsFf+TQVQLOqiOKiny7qP3yiLiY9bmR4xx+9sDgJmCplNIG4Pa3gN+GoHFEPfZGF5ulVrNSgfpjOiKIyCfjvlDTF7Z1xo4a/b+sF7C4wptdrGdBOBicBEYCLwwBA4qmCMgthOEvPyvs5pHv5WXaY4spp/THtY/dbTL0+L4IiJO+kjkKSKbEk2z0m3UGle8iSO35SLUiJ858K2xI/+0WrlE+rWXDCTT7cfAocYl5CmWLre90xXMFp7uLVa/WtZtuz8+Wat0zAFZvrDgs2mQC5Wh1Z6GLtUJbQxPlHhrSQJS8NI+qTxnDYT+sKalawC/vATtQOqFGJtN3lbuvkzEZgITAQmAheNwHZJrINmBbBQ8ql39zlxyoJV/pxOf70TjyDoKfpv0iUu/pjmrmTpdMUdob1IHqZzwoRSQZA4HEv9jFzb58BrnYV8KfNIGfPh1AiEBw3Pyk3ZsFbjXb9bmL+l42/qxJoNCmgW8SpoYVkr84hS0ELu8nl5PJpuLUPqIdEhXTd1sVL5IB3rFd8W3DF9Izx/JgITgYnAROCiEThZwdBZswpY+PetGq0yi7tO6zYqFacgQpZYA0K5sKbi2m91peJdT5dQKYsFBUMdo1ycgvRMuisChb+Fky542wVkQe83bvT1Gc6t+PGdPm1y1MywawGnTxcr1tsO+s4n7WK6icBEYCIwEbgUCJysYDhq2jZT6zCe+Ug/7fFvP90F+aZR4hi2r1IRGlEW0LEGgMXC59PtBrEN0aJOB2W13QKLcgHS5L8U8D4kldiEKUXPLh1KqLUYvuJqQegX/rHO0vhBfWDtu6UUlsWrWT9oiHu4lDu2JVasRq5+Xl/twqFppnAcnJZ0ybdHkTPLRGAiMBGYCJwPAtsVDPR11AS4LaZGhw4w8pxvRDgY6X6MVpXrMkLNtsPfLNO8qRqm8CdKmFjY2czhBE6lne5iEcCXR0qx0za0A0poO8PiZvGt4mxF9WxKLYI//llqmraB9w7Teuv1Pj32precherMOxGYCEwEJgLnjMDRbaqbiBMKLlMj1mB87m/68c1OZRT28wqLkjEKELrH6OgAY9gxnaACWtgSQXj4+Nh7a6HpwTu6UkHJILwoF00BkXZJP5Y17y8OgbQPbYPiaQurRcHf+Wa3ZlgkXF957K4aQGsjQ0MY24xEm5RFYcnioDSK5zMfrum7a6vV73+8KzcUDlNo000EJgITgYnApUCgeut7uHT4LBccU7QO/qVa+9A+kPWTMo2/2uNyEFN/Ov5LF4igWI9t8+lVHaZ3guLxGpHabspyYgHnm2re36LTJmyKSOq1Tmc+XywC4QOlj8MzPK6PKq2+e7Pz8+cV0A5sqykUbWS0arRMy09ojWEUSOEOT2M1cXibdmDLrEW+PpwmfmPeI4Tmw0RgIjARmAhcIAL3tmCkMhlpEhw+XOU4568sBzC98O9daLxai/woERwhM7rD8CEiByqJs6aCheK339MtFx94tpvfLSgkPCggU4iMiF7O+9Gi8aP/6TtLnv9sV0a/+kJ94+aHfddJm16rV5A+bWPTG+G7aZjsFrJV9nWlZLz/Q0u7KGV0totNyM2wicBEYCLwQBFYhp2nqIORqhMzLfB78qm+0FJ2Z2S8Ugv7xt0ERqtRTAiRJkzqxkiUUHBeAWvFG2pth7UVj5Uycf3ttZCzwk2PKMsVGqeo5kz6ABHAW3xth7RVG8BTx42b3vrh7a5sOLCLVePHtU6jHUNe91EUfLfGriALe19bysVjtdA4l2kRdFkxuNk2Og7zdyIwEZgIXDIEdrdgbKq474hQIm7f6qPSG/9R8+91LgLTuDCL/KJklMxpjhAxDUJAmG5x/3SNSp3A+MT1PjptizcrnbQROpvKn2GXGwHCPwrAz+okWOszbtf6DMfQf+2/+q4Tp4I6rMsOFLxmsaBcmpLTPlgr3lFWLb4dRKwZ0lBAppsITAQmAhOBS4vA2RSMpjz8X7demDr53+93peJOTZXcqXMSHLxEyTBCbXMmi8JgOoQS8WgJDdYMFgyCg2VEOAESNxWMIHH1/CgXaq4NUCS0B34sGD7lbk0GBaTxutqIj6A1C0hZsqy9sE2ZQsqalfNOZru4eu1h1ngiMBH4pULgbApGRqijQhD4mvWCCbyUjbbDwFx7FIwycTODExqjoEBvfA6t6T8cCGzjb2tHlNDFtfZUbWXdbcu/nm4+TwQmAhOBicADR+BsCsZ69UcB4J7VYtNZGe2wpA0CZCoX64g+vM+tfdTrHfJce4lb2saxNImf/kRgIjARmAhcdgTK5nyfXBMcJShOmiqPALlPVZhkrxICGxTOq1T9WdeJwERgIjAROILA/wPhEvXIrZByOwAAAABJRU5ErkJggg==;" vertex="1" parent="vtwq8ByCl_yhQdKbJ7Um-16">
          <mxGeometry x="13.799136690647483" y="31.54" width="250.7" height="87.46" as="geometry" />
        </mxCell>
        <mxCell id="vtwq8ByCl_yhQdKbJ7Um-27" value="" style="outlineConnect=0;dashed=0;verticalLabelPosition=bottom;verticalAlign=top;align=center;html=1;shape=mxgraph.aws3.ecs;fillColor=#F58534;gradientColor=none;" vertex="1" parent="vtwq8ByCl_yhQdKbJ7Um-13">
          <mxGeometry x="370.3597122302158" y="5" width="43.510791366906474" height="50.5" as="geometry" />
        </mxCell>
        <mxCell id="vtwq8ByCl_yhQdKbJ7Um-25" value="" style="image;sketch=0;aspect=fixed;html=1;points=[];align=center;fontSize=12;image=img/lib/mscae/Docker.svg;" vertex="1" parent="vtwq8ByCl_yhQdKbJ7Um-13">
          <mxGeometry x="304.05755395683457" y="35" width="50" height="41" as="geometry" />
        </mxCell>
        <mxCell id="vtwq8ByCl_yhQdKbJ7Um-28" value="" style="endArrow=classic;html=1;rounded=0;entryX=0;entryY=0.7;entryDx=0;entryDy=0;exitX=1;exitY=0.7;exitDx=0;exitDy=0;" edge="1" parent="1" source="vtwq8ByCl_yhQdKbJ7Um-5" target="vtwq8ByCl_yhQdKbJ7Um-6">
          <mxGeometry width="50" height="50" relative="1" as="geometry">
            <mxPoint x="581" y="395" as="sourcePoint" />
            <mxPoint x="663" y="395" as="targetPoint" />
          </mxGeometry>
        </mxCell>
        <mxCell id="vtwq8ByCl_yhQdKbJ7Um-29" value="" style="endArrow=classic;html=1;rounded=0;entryX=0;entryY=0.7;entryDx=0;entryDy=0;exitX=1;exitY=0.7;exitDx=0;exitDy=0;" edge="1" parent="1">
          <mxGeometry width="50" height="50" relative="1" as="geometry">
            <mxPoint x="707" y="351" as="sourcePoint" />
            <mxPoint x="767" y="351" as="targetPoint" />
          </mxGeometry>
        </mxCell>
        <mxCell id="vtwq8ByCl_yhQdKbJ7Um-30" value="" style="endArrow=classic;html=1;rounded=0;entryX=0;entryY=0.7;entryDx=0;entryDy=0;exitX=1;exitY=0.7;exitDx=0;exitDy=0;" edge="1" parent="1">
          <mxGeometry width="50" height="50" relative="1" as="geometry">
            <mxPoint x="827" y="347" as="sourcePoint" />
            <mxPoint x="887" y="347" as="targetPoint" />
          </mxGeometry>
        </mxCell>
      </root>
    </mxGraphModel>
  </diagram>
</mxfile>
